<svg id="Layer_1" data-name="Layer 1" xmlns="http://www.w3.org/2000/svg" xmlns:xlink="http://www.w3.org/1999/xlink" viewBox="0 0 1280 1920"><defs><style>.cls-1{fill:none;}.cls-2{clip-path:url(#clip-path);}.cls-3{fill:#49c88f;}.cls-4{opacity:0.48;}.cls-5{fill:#fefefe;}.cls-10,.cls-11,.cls-12,.cls-13,.cls-14,.cls-19,.cls-20,.cls-21,.cls-5,.cls-6,.cls-9{fill-rule:evenodd;}.cls-6,.cls-7{fill:#fff;}.cls-8,.cls-9{fill:#384146;}.cls-10{fill:#f7931e;}.cls-11,.cls-15{fill:#64d0da;}.cls-12{fill:#fe912a;}.cls-13{fill:#ffca5a;}.cls-14{fill:#e34856;}.cls-16,.cls-20{fill:#2d96b3;}.cls-17{fill:#055586;}.cls-18,.cls-21{fill:#df2938;}.cls-19{fill:#fdfdfd;}.cls-22{opacity:0.45;}.cls-23{clip-path:url(#clip-path-2);}.cls-24{fill:#b4b6bc;}.cls-25{fill:#5c546a;}.cls-26{fill:#868491;}.cls-27{fill:#ff4f19;}</style><clipPath id="clip-path"><rect class="cls-1" width="1280" height="1918"/></clipPath><clipPath id="clip-path-2"><rect class="cls-1" x="790.26" y="1522.56" width="121.03" height="155.44"/></clipPath></defs><title>bg-evaluate</title><g class="cls-2"><g id="_Group_" data-name="&lt;Group&gt;"><rect id="_Path_" data-name="&lt;Path&gt;" class="cls-3" x="0.86" y="-1.06" width="1279.14" height="1921.43"/></g><g id="_Group_2" data-name="&lt;Group&gt;"><rect id="_Path_2" data-name="&lt;Path&gt;" class="cls-1" x="0.86" y="-2.64" width="1292.4" height="1921.43"/></g></g><g class="cls-4"><path class="cls-5" d="M376.74,1291.11a32.84,32.84,0,1,1,44.87,12,32.88,32.88,0,0,1-44.87-12Zm3.92-2.27A28.31,28.31,0,1,0,391,1250.17,28.31,28.31,0,0,0,380.67,1288.84Z"/><path class="cls-5" d="M385.64,1274.81a4,4,0,1,1,5.89-5.27l11.95,8.7,16.93-14.39a4,4,0,0,1,5.89,5.27l-19.86,22.31a4,4,0,0,1-2.81,1.31h-.29a4,4,0,0,1-2.81-1.31Z"/><path class="cls-6" d="M620.54,1217.52a46.26,46.26,0,0,0,6.61-3.7,8.49,8.49,0,0,1,12.1-11.8,47.53,47.53,0,0,0,3.87-6.5,8.49,8.49,0,0,1,4.6-16.27,46.8,46.8,0,0,0,.1-7.57,8.49,8.49,0,0,1-4.16-16.39,46.48,46.48,0,0,0-3.7-6.61,8.49,8.49,0,0,1-11.8-12.1,46.85,46.85,0,0,0-6.5-3.87,8.49,8.49,0,0,1-16.27-4.6,46.58,46.58,0,0,0-7.57-.1,8.49,8.49,0,0,1-16.38,4.16,46.34,46.34,0,0,0-6.61,3.7,8.49,8.49,0,0,1-12.1,11.8,47,47,0,0,0-3.87,6.51,8.49,8.49,0,0,1-4.6,16.27,46.8,46.8,0,0,0-.1,7.57,8.49,8.49,0,0,1,4.16,16.38A46.91,46.91,0,0,0,562,1201a8.49,8.49,0,0,1,11.81,12.1,47.07,47.07,0,0,0,6.5,3.87,8.49,8.49,0,0,1,16.27,4.6,46.34,46.34,0,0,0,7.57.1,8.49,8.49,0,0,1,16.38-4.16Zm-14.39-22.34a21,21,0,1,1,15.17-25.49A21,21,0,0,1,606.15,1195.18Z"/><rect class="cls-7" x="484.63" y="1260.39" width="278.4" height="174.07"/><rect class="cls-8" x="446.94" y="1449.13" width="354.59" height="20.51" rx="2.93" ry="2.93"/><path class="cls-9" d="M481.39,1251.57H767.08a6.67,6.67,0,0,1,6.65,6.65v178.2a6.67,6.67,0,0,1-6.65,6.65H481.39a6.67,6.67,0,0,1-6.65-6.65v-178.2a6.67,6.67,0,0,1,6.65-6.65Zm8.18,14.83v161.85H758.9V1266.4Z"/><circle class="cls-7" cx="651.69" cy="1341.63" r="4.73"/><path class="cls-6" d="M766.76,1390.32c-2.14,3.6-5.6,5.42-9.85,5.81h-.05l-23.09.59a4.9,4.9,0,0,1-4-1.79,6.28,6.28,0,0,1-1-5.8h-.4c-3.92-.14-5.19-6.45-2.55-8.91-3.26-1.6-3.5-9.05.6-10.3a6.05,6.05,0,0,1-.34-5.07,7.33,7.33,0,0,1,6.07-4.52h.09l12.32-.47a16.25,16.25,0,0,1-.12-12.51l0,0,0,0a5.53,5.53,0,0,1,5.68-3.64A5.68,5.68,0,0,1,755,1348a12.36,12.36,0,0,1,.32,4,16.17,16.17,0,0,0-.12,2.51,2.74,2.74,0,0,0,.39,1.19c3.31,1.18,8.54,3.62,10.07,7l9.75-.21,6.05,27.42Z"/><path class="cls-10" d="M779.5,1388.43l-13.68.35c-1.48,3-4.18,5.34-9,5.8l-23,.59c-3.41.1-4.38-3.93-3.39-5.86l8.83-.21c1.8,0,1.39-1.84,0-1.8l-10.8.27c-2.69-.09-3.43-5.84-.77-6.64l11-.46c1.59-.14,1.29-1.92,0-1.8L727,1379c-2.51-.1-3.16-6.74-.14-7.56l12-.3c1.81-.21,1.6-1.82-.21-1.79l-10.62.27c-1.67-1.76-1.25-6.81,4.29-7.69l14.57-.55c-2.52-4.88-2.77-8.64-1-13.46,1.88-4.32,6.76-3.05,7.58.53,1,3.94-.91,6,1.12,8.61,3.44,1.17,9.49,4,9.91,7.31l9.65-.21Z"/><path class="cls-11" d="M600.08,1554a38.61,38.61,0,0,1,38.56,36.67l0,0v40.6H600.08a38.61,38.61,0,1,1,0-77.22Z"/><path class="cls-12" d="M682.45,1554a38.61,38.61,0,0,0-38.56,36.67l0,0v40.6h38.61a38.61,38.61,0,0,0,0-77.22Z"/><path class="cls-13" d="M600.08,1713.55a38.61,38.61,0,0,0,38.56-36.67l0,.05v-40.6H600.08a38.61,38.61,0,1,0,0,77.22Z"/><path class="cls-14" d="M699.64,1747.93a55.8,55.8,0,0,1-55.73-53l-.07.07v-58.67h55.8a55.8,55.8,0,1,1,0,111.59Z"/><path class="cls-6" d="M686.93,1680v3.78l-5.27,21.14H678l5.27-21.15h-7.6V1680Zm6.7,3.78v5.34a3.55,3.55,0,0,1,1.58-1.23,3.24,3.24,0,0,1,1.25-.22,4.1,4.1,0,0,1,3.65,1.73,7.44,7.44,0,0,1,1,4.21V1699a6.17,6.17,0,0,1-1.75,4.54,5.64,5.64,0,0,1-4.21,1.71,5.3,5.3,0,0,1-4.09-1.79,6,6,0,0,1-1.57-4.18v-.6l3.59-.28.08.85a2.22,2.22,0,0,0,1.21,2,1.5,1.5,0,0,0,.68.16q2.31,0,2.31-2.41v-6.1a2.31,2.31,0,0,0-.8-1.81,1.52,1.52,0,0,0-1.06-.34,1.63,1.63,0,0,0-1.48.77,2.77,2.77,0,0,0-.4,1.43v.68h-3.75V1680h11v3.78Zm18.93,5.41a3.12,3.12,0,0,1-6.24,0V1682a3.12,3.12,0,0,1,6.24,0v7.13Zm-4.31,0a1.14,1.14,0,1,0,2.27,0V1682a1.14,1.14,0,1,0-2.27,0v7.11Zm12.26,2.59a3,3,0,0,1,2.21.92,3,3,0,0,1,.9,2.2V1702a2.94,2.94,0,0,1-.92,2.19,3.14,3.14,0,0,1-4.4,0,3,3,0,0,1-.92-2.18v-7.12a3.13,3.13,0,0,1,3.13-3.12Zm1.1,3.1a1.1,1.1,0,0,0-.33-.81,1.15,1.15,0,0,0-2,.81v7.11a1.1,1.1,0,0,0,.33.81,1.19,1.19,0,0,0,1.63,0,1.1,1.1,0,0,0,.33-.81v-7.11Zm-11.89,10.54L722.43,1679h-2.18l-12.73,26.37Z"/><path class="cls-6" d="M575.66,1587.48a7.21,7.21,0,0,1,1.91-5.4,5.88,5.88,0,0,1,4.34-1.65,5.57,5.57,0,0,1,4.21,1.85,6.08,6.08,0,0,1,1.74,4.31,11.17,11.17,0,0,1-1.14,4.91,36.22,36.22,0,0,1-2.89,4.51q-.62.88-1.83,2.73l-.68,1c-.43.66-.77,1.18-1,1.57a1.32,1.32,0,0,0-.16.36h7.38v3.67H575.61v-3.44a8.48,8.48,0,0,1,.82-1.37c.25-.39.54-.81.86-1.27l1-1.41q.86-1.17,2.7-3.75a24.81,24.81,0,0,0,2.59-4.39,7.54,7.54,0,0,0,.7-3,3,3,0,0,0-.64-1.92,2.25,2.25,0,0,0-1.8-.84,2.33,2.33,0,0,0-2.24,1.8,4.19,4.19,0,0,0-.22,1.43v.95h-3.7v-.65Zm18.9-3.27v5.34a3.58,3.58,0,0,1,1.58-1.23,3.3,3.3,0,0,1,1.26-.22,4.1,4.1,0,0,1,3.65,1.73,7.44,7.44,0,0,1,1,4.21v5.37a6.17,6.17,0,0,1-1.75,4.54,5.63,5.63,0,0,1-4.21,1.71,5.3,5.3,0,0,1-4.09-1.79,6,6,0,0,1-1.57-4.17v-.6l3.59-.27.08.85a2.22,2.22,0,0,0,1.21,2,1.49,1.49,0,0,0,.68.16q2.31,0,2.31-2.41v-6.1a2.32,2.32,0,0,0-.8-1.81,1.53,1.53,0,0,0-1.06-.34,1.63,1.63,0,0,0-1.48.77,2.79,2.79,0,0,0-.4,1.43v.68h-3.75v-13.61h11v3.78Zm18.93,5.41a3,3,0,0,1-.92,2.19,3.12,3.12,0,0,1-5.32-2.19v-7.13a3.12,3.12,0,0,1,3.12-3.13,3,3,0,0,1,2.21.92,3,3,0,0,1,.92,2.2v7.13Zm-4.31,0a1.13,1.13,0,1,0,2.27,0v-7.11a1.13,1.13,0,1,0-2.27,0v7.11Zm12.26,2.59a3,3,0,0,1,2.21.92,3,3,0,0,1,.91,2.2v7.12a3,3,0,0,1-.92,2.19,3.14,3.14,0,0,1-4.4,0,3,3,0,0,1-.92-2.18v-7.12a3.14,3.14,0,0,1,3.13-3.12Zm1.1,3.1a1.1,1.1,0,0,0-.33-.81,1.15,1.15,0,0,0-2,.81v7.11a1.15,1.15,0,1,0,2.3,0v-7.11Zm-11.88,10.54,12.71-26.37h-2.18l-12.73,26.37Z"/><path class="cls-6" d="M656.17,1587.48a7.21,7.21,0,0,1,1.91-5.4,5.88,5.88,0,0,1,4.34-1.65,5.57,5.57,0,0,1,4.21,1.85,6.08,6.08,0,0,1,1.74,4.31,11.17,11.17,0,0,1-1.14,4.91,36.22,36.22,0,0,1-2.89,4.51q-.62.88-1.83,2.73l-.68,1c-.43.66-.77,1.18-1,1.57a1.32,1.32,0,0,0-.16.36h7.38v3.67H656.12v-3.44a8.48,8.48,0,0,1,.82-1.37c.25-.39.54-.81.86-1.27l1-1.41q.86-1.17,2.7-3.75a24.81,24.81,0,0,0,2.59-4.39,7.54,7.54,0,0,0,.7-3,3,3,0,0,0-.64-1.92,2.25,2.25,0,0,0-1.8-.84,2.33,2.33,0,0,0-2.24,1.8,4.19,4.19,0,0,0-.22,1.43v.95h-3.7v-.65Zm18.9-3.27v5.34a3.58,3.58,0,0,1,1.58-1.23,3.3,3.3,0,0,1,1.26-.22,4.1,4.1,0,0,1,3.65,1.73,7.44,7.44,0,0,1,1,4.21v5.37a6.17,6.17,0,0,1-1.75,4.54,5.63,5.63,0,0,1-4.21,1.71,5.3,5.3,0,0,1-4.09-1.79,6,6,0,0,1-1.57-4.17v-.6l3.59-.27.08.85a2.22,2.22,0,0,0,1.21,2,1.49,1.49,0,0,0,.68.16q2.31,0,2.31-2.41v-6.1a2.32,2.32,0,0,0-.8-1.81,1.53,1.53,0,0,0-1.06-.34,1.63,1.63,0,0,0-1.48.77,2.79,2.79,0,0,0-.4,1.43v.68h-3.75v-13.61h11v3.78Zm18.93,5.41a3,3,0,0,1-.92,2.19,3.12,3.12,0,0,1-5.32-2.19v-7.13a3.12,3.12,0,0,1,3.12-3.13,3,3,0,0,1,2.21.92,3,3,0,0,1,.92,2.2v7.13Zm-4.31,0a1.13,1.13,0,1,0,2.27,0v-7.11a1.13,1.13,0,1,0-2.27,0v7.11Zm12.26,2.59a3,3,0,0,1,2.21.92,3,3,0,0,1,.91,2.2v7.12a3,3,0,0,1-.92,2.19,3.14,3.14,0,0,1-4.4,0,3,3,0,0,1-.92-2.18v-7.12a3.14,3.14,0,0,1,3.13-3.12Zm1.1,3.1a1.1,1.1,0,0,0-.33-.81,1.15,1.15,0,0,0-2,.81v7.11a1.15,1.15,0,1,0,2.3,0v-7.11Zm-11.88,10.54,12.71-26.37h-2.18L689,1605.79Z"/><path class="cls-6" d="M575.66,1669.85a7.22,7.22,0,0,1,1.91-5.41,5.88,5.88,0,0,1,4.34-1.65,5.59,5.59,0,0,1,4.21,1.85,6.09,6.09,0,0,1,1.74,4.31,11.16,11.16,0,0,1-1.14,4.91,36.32,36.32,0,0,1-2.89,4.51q-.62.87-1.83,2.72l-.68,1q-.65,1-1,1.57a1.32,1.32,0,0,0-.16.36h7.38v3.67H575.61v-3.44a8.63,8.63,0,0,1,.82-1.38l.86-1.27,1-1.41q.86-1.17,2.7-3.75a24.65,24.65,0,0,0,2.59-4.39,7.54,7.54,0,0,0,.7-3,3,3,0,0,0-.64-1.92,2.25,2.25,0,0,0-1.8-.83,2.32,2.32,0,0,0-2.24,1.8,4.19,4.19,0,0,0-.22,1.43v.95h-3.7v-.65Zm18.9-3.27v5.34a3.56,3.56,0,0,1,1.58-1.23,3.29,3.29,0,0,1,1.26-.22,4.1,4.1,0,0,1,3.65,1.73,7.44,7.44,0,0,1,1,4.21v5.37a6.18,6.18,0,0,1-1.75,4.54,5.63,5.63,0,0,1-4.21,1.71,5.3,5.3,0,0,1-4.09-1.79,6,6,0,0,1-1.57-4.18v-.6l3.59-.28.08.85a2.22,2.22,0,0,0,1.21,2,1.49,1.49,0,0,0,.68.16c1.54,0,2.31-.8,2.31-2.41v-6.1a2.31,2.31,0,0,0-.8-1.81,1.52,1.52,0,0,0-1.06-.34,1.63,1.63,0,0,0-1.48.77,2.81,2.81,0,0,0-.4,1.43v.68h-3.75v-13.61h11v3.78Zm18.93,5.41a3,3,0,0,1-.92,2.19,3.12,3.12,0,0,1-5.32-2.19v-7.13a3.12,3.12,0,0,1,6.24,0V1672Zm-4.31,0a1.13,1.13,0,1,0,2.27,0v-7.11a1.13,1.13,0,1,0-2.27,0v7.11Zm12.26,2.59a3,3,0,0,1,2.21.92,3,3,0,0,1,.91,2.2v7.12a3,3,0,0,1-.92,2.19,3.14,3.14,0,0,1-4.4,0,2.94,2.94,0,0,1-.92-2.18v-7.12a3.13,3.13,0,0,1,3.13-3.12Zm1.1,3.09a1.1,1.1,0,0,0-.33-.81,1.15,1.15,0,0,0-2,.81v7.11a1.15,1.15,0,1,0,2.3,0v-7.11Zm-11.88,10.54,12.71-26.37h-2.18l-12.73,26.37Z"/><rect class="cls-15" x="344.86" y="1639.94" width="22.68" height="70.26"/><rect class="cls-16" x="378.88" y="1628.55" width="22.68" height="81.65"/><rect class="cls-17" x="412.9" y="1563.17" width="22.68" height="147.03"/><rect class="cls-18" x="446.93" y="1661.25" width="22.68" height="48.96"/><rect class="cls-16" x="480.95" y="1621.42" width="22.68" height="88.79"/><path class="cls-9" d="M327.89,1613.77c2,2.91,7.06,6.87,13,10,5,2.64,10.52,4.68,15.39,5h0c5.14.66,12.47-1,19.18-4.64,5.69-3.1,10.93-7.64,14-13.44,3.73-7.22,6.5-17.37,9.25-27.52,5.63-20.7,11.26-41.4,25.56-38.75,15.22-1.51,18.83,31.39,22.09,61.1,2.56,23.37,4.9,44.7,11.88,44.55h.11c6.52.74,10.08-8.46,13.8-18.11,4.52-11.7,9.28-24,20.3-21.7h0c6.52,1.68,12,1.57,16.14.43,4.86-1.33,7.92-4.06,8.77-7l1.63.48c-1,3.43-4.49,6.62-10,8.12-4.41,1.21-10.16,1.33-17-.41h0c-9.61-2-14.1,9.61-18.37,20.66-4,10.27-7.75,20.07-15.56,19.19-8.45,0-10.86-22-13.5-46.06-3.18-29-6.7-61.11-20.35-59.58h-.25c-12.85-2.49-18.28,17.51-23.72,37.5-2.78,10.23-5.56,20.46-9.39,27.86h0c-3.23,6.12-8.71,10.9-14.68,14.14-7,3.81-14.69,5.52-20.16,4.83h0c-5.13-.36-10.92-2.49-16.07-5.22-6.15-3.27-11.42-7.45-13.58-10.56Z"/><circle class="cls-8" cx="458.27" cy="1650.97" r="6.51"/><circle class="cls-7" cx="458.27" cy="1650.97" r="2.74"/><circle class="cls-8" cx="492.29" cy="1611.15" r="6.51"/><circle class="cls-7" cx="492.29" cy="1611.15" r="2.74"/><circle class="cls-8" cx="390.22" cy="1611.15" r="6.51"/><circle class="cls-7" cx="390.22" cy="1611.15" r="2.74"/><circle class="cls-8" cx="356.2" cy="1629.67" r="6.51"/><circle class="cls-7" cx="356.2" cy="1629.67" r="2.74"/><circle class="cls-8" cx="424.24" cy="1545.34" r="6.51"/><circle class="cls-7" cx="424.24" cy="1545.34" r="2.74"/><path class="cls-7" d="M346.19,1577a124.88,124.88,0,0,1-8.75-17l4.79-2a119.68,119.68,0,0,0,8.39,16.32Zm-14-32a151,151,0,0,1-5-25.94l5.17-.54a145.66,145.66,0,0,0,4.82,25Zm-5.9-41.76v-2a189.71,189.71,0,0,1,1.6-24.32l5.15.67a184.66,184.66,0,0,0-1.56,23.65v1.92Zm9.32-40.8-5.09-1.07a216.81,216.81,0,0,1,7-25.37l4.92,1.68A211.22,211.22,0,0,0,335.57,1462.38Zm12.29-39.16-4.79-2a215.47,215.47,0,0,1,11.7-23.55l4.5,2.6A210.75,210.75,0,0,0,347.86,1423.22Zm19.62-36-4.29-2.94a184.37,184.37,0,0,1,16.39-20.64l3.82,3.52A179,179,0,0,0,367.47,1387.21Zm26.85-30.81-3.46-3.88a136.62,136.62,0,0,1,21.32-15.66l2.64,4.48A131.43,131.43,0,0,0,394.33,1356.4Zm34.11-21.89-2-4.8a100,100,0,0,1,25.66-6.94l.66,5.16A94.75,94.75,0,0,0,428.44,1334.51Z"/><path class="cls-7" d="M945,1534.52l-5-1.51a197.91,197.91,0,0,0,5.85-25l5.13.85A203.2,203.2,0,0,1,945,1534.52Zm8-41.29-5.18-.45c.49-5.63.74-11.35.74-17q0-4.32-.19-8.62l5.19-.23q.2,4.42.2,8.85C953.76,1481.57,953.51,1487.45,953,1493.23Zm-5.92-41.41a191.76,191.76,0,0,0-4.84-25.15l5-1.32a196.73,196.73,0,0,1,5,25.83ZM937.72,1412a181,181,0,0,0-10.22-23.46l4.6-2.41a186,186,0,0,1,10.52,24.14Zm-17.94-36.74a167.7,167.7,0,0,0-15.41-20.4l3.89-3.44a172.81,172.81,0,0,1,15.89,21Zm-26.11-31.39a158.06,158.06,0,0,0-20-15.87l2.89-4.32a163.86,163.86,0,0,1,20.68,16.4Zm-33.16-23.76a160.09,160.09,0,0,0-23.41-10.2l1.69-4.92A165.43,165.43,0,0,1,863,1315.5Zm-38.14-14.51a177.44,177.44,0,0,0-25.23-4.21l.49-5.18a182.65,182.65,0,0,1,26,4.34Z"/><circle class="cls-7" cx="455.76" cy="1327.46" r="9.67"/><circle class="cls-7" cx="939.95" cy="1541.69" r="9.66"/><path class="cls-19" d="M724.68,1182.67c1.65.78.3,3.58-1.69,3.18a1.47,1.47,0,0,1-.31-.11l-.41-.2-.7-.34-.7-.33-.7-.33-.7-.33-.7-.32-.7-.32-.71-.32-.71-.32-.71-.31-.71-.31-.71-.31-.71-.3-.72-.3-.72-.3-.72-.3-.72-.29-.73-.29-.73-.29-.73-.28-.47-.18c-1.61-.58-.76-3.25,1.25-3.28a1.7,1.7,0,0,1,.53.1l.48.19.74.29.74.29.73.29.74.3.73.3.73.3.73.31.73.31.73.31.72.32.72.32.72.32.71.32.72.32.71.33.71.33.71.33.71.33.7.34Z"/><path class="cls-19" d="M746.42,1195.32c1.5,1.06-.23,3.69-2.08,3a1.5,1.5,0,0,1-.26-.14l-.16-.11-.62-.42-.62-.42-.62-.41-.62-.41-.63-.41-.63-.41-.63-.41-.63-.4-.64-.4-.64-.4-.64-.4-.65-.39-.65-.39-.65-.39-.65-.39-.66-.38-.66-.38-.66-.38-.66-.37-.66-.37-.13-.07c-1.53-.82-.25-3.44,1.66-3.17a1.47,1.47,0,0,1,.47.16l.15.08.67.38.67.38.67.38.67.39.67.39.66.39.66.4.66.4.66.4.65.4.65.4.65.41.65.41.64.41.64.42.64.41.63.42.63.42.63.43.63.43Z"/><path class="cls-19" d="M765.7,1211c1.43,1.44-1.16,4-2.66,2.62l-.3-.29-.52-.5-.53-.49-.53-.5-.53-.49-.54-.49-.54-.48-.54-.49-.54-.48-.55-.48-.55-.48-.55-.47-.56-.48-.56-.47-.56-.47-.57-.47-.57-.47-.57-.46-.57-.46-.58-.46-.58-.45-.2-.15a1.39,1.39,0,0,1-.44-1.51c.37-1.3,2-2,2.91-1.28l.21.16.59.46.59.46.58.47.58.47.58.47.58.47.57.48.57.48.57.48.57.49.56.48.56.49.55.49.55.49.55.49.55.5.54.5.54.5.53.51.54.51Z"/><path class="cls-19" d="M781.86,1229.72c1.06,1.51-1.33,3.66-2.74,2.5a1.61,1.61,0,0,1-.23-.24l-.37-.52-.41-.57-.41-.56-.41-.56-.42-.56-.42-.56-.42-.55-.43-.56-.43-.55-.44-.55-.44-.55-.44-.54-.44-.55-.45-.54-.45-.54-.46-.54-.46-.54-.46-.54-.47-.54-.47-.53-.48-.53-.32-.36c-1.24-1.38,1.05-3.79,2.63-2.64l.16.15.34.37.48.54.48.54.48.54.47.55.47.55.46.55.47.55.46.56.45.56.45.56.45.56.45.56.44.57.44.56.43.57.43.57.43.57.42.58.42.58.42.58Z"/><path class="cls-19" d="M793.94,1251.57c.7,1.74-2.07,3.59-3.18,1.89l-.07-.14-.14-.34-.26-.62-.27-.63-.27-.62-.27-.62-.28-.62-.28-.62-.29-.62-.29-.62-.3-.62-.3-.61-.3-.61-.31-.61-.31-.61-.32-.61-.32-.61-.33-.6-.33-.6-.33-.6-.34-.6-.34-.59-.34-.59-.31-.52a1.51,1.51,0,0,1-.15-1.09c.37-1.58,2.51-2.22,3.24-1l.32.54.36.61.35.61.34.61.34.61.34.62.33.62.33.62.33.62.32.62.32.63.31.62.31.63.31.63.3.63.29.63.29.63.28.63.29.64.28.64.27.64.27.64Z"/><path class="cls-19" d="M800.57,1276.34a2,2,0,0,1-.85,1.8c-1.06.78-2.44.4-2.59-.74l0-.26-.09-.68-.09-.67-.11-.68-.11-.68-.11-.67-.12-.67-.12-.67-.13-.67-.13-.67-.14-.66-.14-.66-.15-.66-.15-.66-.15-.66-.16-.66-.17-.66-.17-.66-.17-.66-.18-.65-.18-.65-.19-.65-.19-.65-.15-.49a1.89,1.89,0,0,1,.69-1.93c1-.82,2.32-.62,2.65.42l.16.52.2.67.19.67.19.67.18.67.18.67.17.68.17.68.17.68.16.68.16.68.15.68.15.68.14.68.14.69.13.69.12.69.12.69.11.69.11.69.11.69.1.7.1.7Z"/><path class="cls-19" d="M800.93,1298.28c-.19,1.93-3.08,2.62-3.44.76a1.61,1.61,0,0,1,0-.42l.07-.7.06-.71.06-.7,0-.71,0-.71,0-.7,0-.7,0-.7,0-.7,0-.69V1287a1.87,1.87,0,0,1,.4-1.17c1.07-1.37,3-1.09,3.07.43V1291l0,.72,0,.72,0,.73,0,.73,0,.73,0,.73-.05.73-.06.73-.07.73Z"/><path class="cls-19" d="M683.86,1172c-1.87-.46-1-3.3,1.05-3.33a1.7,1.7,0,0,1,.34,0l.79.19.79.19.78.19.79.2.78.19.79.2.78.2.78.21.78.21.78.21.78.21.77.22.77.22.77.23.77.23.77.23.77.23.77.24.76.24.76.24.17.06a1.35,1.35,0,0,1,.87,1.64,2.09,2.09,0,0,1-2.51,1.58l-.17-.06-.75-.24-.75-.24-.75-.23-.76-.23-.75-.23-.76-.22-.76-.23-.76-.21-.76-.22-.76-.21-.77-.21-.77-.21-.77-.2-.77-.2-.77-.2-.77-.19-.77-.19-.77-.19-.78-.18Z"/><path class="cls-19" d="M675.34,1170.16a7.21,7.21,0,0,1,6.41-7.61,6.64,6.64,0,0,1,7.42,6.11,7.22,7.22,0,0,1-6.42,7.61A6.63,6.63,0,0,1,675.34,1170.16Z"/><polygon class="cls-19" points="673.33 1553.43 673.34 1553.62 673.39 1554.26 673.43 1554.89 673.48 1555.52 673.53 1556.15 673.58 1556.79 673.63 1557.41 673.69 1558.04 673.75 1558.67 673.81 1559.3 673.87 1559.92 673.94 1560.55 674.01 1561.17 674.08 1561.79 674.15 1562.41 674.23 1563.02 674.3 1563.64 674.33 1563.87 672.35 1564.15 672.32 1563.92 672.25 1563.3 672.17 1562.67 672.09 1562.05 672.02 1561.41 671.96 1560.78 671.89 1560.15 671.82 1559.52 671.76 1558.88 671.7 1558.25 671.64 1557.61 671.59 1556.97 671.54 1556.34 671.48 1555.7 671.44 1555.06 671.39 1554.41 671.35 1553.77 671.34 1553.57 673.33 1553.43"/><polygon class="cls-19" points="673.13 1536.65 673.12 1536.99 673.09 1537.64 673.07 1538.28 673.05 1538.92 673.03 1539.56 673.02 1540.2 673.01 1540.84 673 1541.48 673 1542.12 672.99 1542.76 673 1543.4 673 1544.04 673 1544.68 673.01 1545.32 673.02 1545.97 673.03 1546.61 673.05 1547.14 671.05 1547.2 671.03 1546.65 671.02 1546 671.01 1545.36 671 1544.71 671 1544.06 671 1543.4 671 1542.76 671 1542.11 671 1541.45 671.01 1540.8 671.02 1540.15 671.04 1539.5 671.05 1538.85 671.07 1538.2 671.09 1537.55 671.12 1536.9 671.13 1536.56 673.13 1536.65"/><polygon class="cls-19" points="674.91 1520.01 674.9 1520.05 674.8 1520.66 674.69 1521.28 674.59 1521.89 674.5 1522.51 674.4 1523.13 674.31 1523.74 674.23 1524.36 674.14 1524.99 674.06 1525.61 673.98 1526.23 673.91 1526.86 673.84 1527.48 673.77 1528.11 673.7 1528.74 673.64 1529.37 673.58 1530 673.55 1530.38 671.56 1530.18 671.59 1529.8 671.65 1529.16 671.71 1528.52 671.78 1527.87 671.85 1527.23 671.92 1526.6 672 1525.96 672.08 1525.33 672.16 1524.69 672.25 1524.06 672.34 1523.43 672.43 1522.79 672.52 1522.17 672.62 1521.54 672.72 1520.91 672.83 1520.29 672.94 1519.67 672.95 1519.63 674.91 1520.01"/><polygon class="cls-19" points="679.2 1503.96 679.05 1504.37 678.85 1504.91 678.65 1505.46 678.46 1506.02 678.27 1506.57 678.09 1507.13 677.91 1507.69 677.73 1508.26 677.56 1508.83 677.39 1509.4 677.22 1509.97 677.05 1510.55 676.89 1511.13 676.74 1511.7 676.59 1512.29 676.44 1512.87 676.29 1513.46 676.19 1513.89 674.25 1513.37 674.36 1512.93 674.5 1512.33 674.66 1511.73 674.82 1511.13 674.98 1510.54 675.14 1509.94 675.31 1509.35 675.48 1508.77 675.66 1508.18 675.83 1507.6 676.01 1507.02 676.2 1506.44 676.39 1505.87 676.58 1505.3 676.78 1504.73 676.98 1504.16 677.18 1503.6 677.34 1503.19 679.2 1503.96"/><polygon class="cls-19" points="686.8 1489.48 686.78 1489.52 686.46 1489.96 686.15 1490.4 685.84 1490.85 685.54 1491.3 685.24 1491.76 684.95 1492.22 684.66 1492.68 684.37 1493.15 684.09 1493.62 683.81 1494.1 683.54 1494.58 683.27 1495.06 683 1495.55 682.74 1496.04 682.48 1496.53 682.22 1497.03 681.97 1497.53 681.72 1498.04 681.61 1498.26 679.83 1497.32 679.94 1497.08 680.2 1496.55 680.46 1496.03 680.73 1495.52 680.99 1495 681.26 1494.49 681.54 1493.99 681.82 1493.49 682.11 1492.99 682.4 1492.5 682.69 1492.01 682.99 1491.53 683.29 1491.04 683.6 1490.56 683.9 1490.09 684.22 1489.62 684.54 1489.15 684.86 1488.69 685.19 1488.24 685.22 1488.2 686.8 1489.48"/><polygon class="cls-19" points="698.3 1478.52 698.28 1478.53 698.1 1478.64 697.91 1478.76 697.73 1478.87 697.55 1478.99 697.37 1479.11 697.19 1479.22 697.02 1479.34 696.85 1479.46 696.42 1479.77 695.99 1480.08 695.57 1480.39 695.15 1480.72 694.74 1481.05 694.34 1481.38 693.93 1481.72 693.53 1482.06 693.14 1482.41 692.75 1482.77 692.36 1483.13 691.98 1483.49 691.6 1483.86 691.24 1484.23 690.87 1484.61 690.66 1484.82 689.25 1483.33 689.46 1483.11 689.85 1482.71 690.24 1482.32 690.64 1481.93 691.03 1481.55 691.44 1481.17 691.85 1480.8 692.26 1480.43 692.68 1480.08 693.1 1479.72 693.53 1479.37 693.96 1479.02 694.4 1478.68 694.84 1478.35 695.29 1478.02 695.74 1477.7 695.93 1477.57 696.12 1477.44 696.31 1477.31 696.5 1477.18 696.7 1477.06 696.9 1476.93 697.1 1476.81 697.31 1476.69 697.33 1476.68 698.3 1478.52"/><polygon class="cls-19" points="728.79 1474.1 728.68 1474.08 728.43 1474.03 728.19 1473.99 727.94 1473.94 727.7 1473.9 727.45 1473.87 727.2 1473.83 726.95 1473.79 726.7 1473.75 726.45 1473.72 726.19 1473.68 725.94 1473.66 725.68 1473.62 725.42 1473.6 725.16 1473.57 724.9 1473.54 724.65 1473.52 724.39 1473.5 724.12 1473.48 723.86 1473.46 723.6 1473.44 723.34 1473.42 723.07 1473.41 722.81 1473.39 722.54 1473.38 722.28 1473.37 722.01 1473.36 721.74 1473.36 721.48 1473.35 721.21 1473.34 720.94 1473.34 720.67 1473.34 720.4 1473.34 720.13 1473.34 719.86 1473.34 719.59 1473.34 719.32 1473.35 719.05 1473.35 719 1471.24 719.28 1471.23 719.56 1471.23 719.84 1471.22 720.12 1471.22 720.4 1471.22 720.68 1471.22 720.96 1471.22 721.24 1471.23 721.52 1471.23 721.79 1471.24 722.07 1471.25 722.35 1471.26 722.63 1471.27 722.9 1471.28 723.18 1471.3 723.45 1471.31 723.72 1471.33 724 1471.35 724.27 1471.37 724.54 1471.39 724.81 1471.41 725.09 1471.44 725.36 1471.47 725.62 1471.5 725.89 1471.52 726.16 1471.56 726.43 1471.59 726.69 1471.63 726.96 1471.66 727.22 1471.69 727.48 1471.73 727.74 1471.78 728 1471.82 728.26 1471.86 728.52 1471.9 728.78 1471.95 729.03 1472 729.15 1472.02 728.79 1474.1"/><path class="cls-19" d="M741.25,1481.87c-1.25-3-4.07-4.94-6.88-6.11l.73-2c3.33,1.43,6.48,3.61,8,7.22Z"/><polygon class="cls-19" points="737.03 1495.94 737.16 1495.81 737.33 1495.65 737.5 1495.47 737.66 1495.3 737.82 1495.12 737.98 1494.93 738.14 1494.73 738.3 1494.53 738.46 1494.33 738.61 1494.11 738.77 1493.9 738.92 1493.67 739.07 1493.44 739.22 1493.21 739.36 1492.96 739.51 1492.71 739.65 1492.46 739.79 1492.2 739.93 1491.93 740.06 1491.68 740.18 1491.42 740.3 1491.18 740.41 1490.93 740.52 1490.69 740.63 1490.44 740.73 1490.2 740.82 1489.96 740.91 1489.73 741 1489.49 741.08 1489.27 741.16 1489.03 741.23 1488.81 741.3 1488.58 741.36 1488.36 741.42 1488.14 741.48 1487.92 741.53 1487.71 741.58 1487.49 741.59 1487.44 743.54 1487.88 743.53 1487.96 743.47 1488.21 743.41 1488.46 743.35 1488.71 743.28 1488.96 743.21 1489.22 743.13 1489.47 743.05 1489.73 742.96 1489.99 742.87 1490.25 742.77 1490.51 742.67 1490.77 742.56 1491.04 742.45 1491.3 742.34 1491.57 742.22 1491.84 742.09 1492.11 741.96 1492.39 741.83 1492.66 741.69 1492.94 741.53 1493.23 741.38 1493.52 741.22 1493.81 741.06 1494.09 740.89 1494.36 740.72 1494.62 740.55 1494.89 740.38 1495.14 740.21 1495.39 740.03 1495.64 739.85 1495.87 739.66 1496.1 739.48 1496.33 739.3 1496.55 739.11 1496.76 738.91 1496.97 738.72 1497.17 738.52 1497.37 738.39 1497.5 737.03 1495.94"/><polygon class="cls-19" points="723.33 1496.06 723.42 1496.12 723.65 1496.25 723.87 1496.38 724.1 1496.51 724.33 1496.63 724.55 1496.75 724.77 1496.87 725 1496.98 725.22 1497.08 725.44 1497.19 725.67 1497.29 725.89 1497.38 726.11 1497.48 726.33 1497.56 726.55 1497.65 726.77 1497.73 727 1497.8 727.21 1497.88 727.43 1497.94 727.65 1498.01 727.87 1498.07 728.09 1498.13 728.3 1498.18 728.52 1498.22 728.73 1498.27 728.95 1498.31 729.16 1498.34 729.37 1498.37 729.58 1498.4 729.8 1498.42 730 1498.44 730.21 1498.45 730.42 1498.46 730.62 1498.47 730.83 1498.47 731.04 1498.47 731.24 1498.46 731.44 1498.45 731.64 1498.43 731.84 1498.41 732.04 1498.39 732.22 1498.37 732.52 1500.45 732.29 1500.48 732.05 1500.52 731.81 1500.54 731.57 1500.56 731.33 1500.57 731.08 1500.58 730.84 1500.58 730.59 1500.58 730.35 1500.58 730.1 1500.57 729.86 1500.55 729.61 1500.53 729.36 1500.5 729.12 1500.47 728.87 1500.43 728.62 1500.39 728.37 1500.35 728.13 1500.29 727.88 1500.24 727.63 1500.18 727.38 1500.12 727.13 1500.05 726.88 1499.98 726.63 1499.9 726.39 1499.82 726.14 1499.73 725.89 1499.64 725.64 1499.55 725.4 1499.45 725.15 1499.35 724.9 1499.24 724.65 1499.13 724.4 1499.01 724.16 1498.9 723.91 1498.77 723.66 1498.65 723.41 1498.52 723.17 1498.38 722.93 1498.24 722.68 1498.1 722.44 1497.96 722.34 1497.9 723.33 1496.06"/><polygon class="cls-19" points="712.37 1484.63 712.49 1484.83 712.67 1485.11 712.86 1485.39 713.04 1485.67 713.23 1485.95 713.42 1486.22 713.61 1486.5 713.8 1486.77 713.99 1487.04 714.19 1487.3 714.38 1487.57 714.58 1487.83 714.78 1488.09 714.98 1488.35 715.18 1488.6 715.38 1488.85 715.59 1489.1 715.79 1489.35 716 1489.59 716.2 1489.83 716.41 1490.07 716.62 1490.31 716.83 1490.54 717.04 1490.77 717.25 1491 717.46 1491.22 717.67 1491.45 717.89 1491.67 718.11 1491.88 718.32 1492.1 718.54 1492.31 718.68 1492.44 717.35 1494.02 717.19 1493.87 716.97 1493.65 716.74 1493.42 716.5 1493.19 716.28 1492.96 716.06 1492.72 715.83 1492.49 715.61 1492.25 715.38 1492 715.16 1491.76 714.94 1491.51 714.72 1491.26 714.51 1491 714.29 1490.75 714.08 1490.49 713.87 1490.23 713.65 1489.96 713.44 1489.69 713.23 1489.42 713.02 1489.15 712.81 1488.88 712.61 1488.6 712.4 1488.32 712.2 1488.04 712 1487.76 711.8 1487.47 711.61 1487.18 711.41 1486.89 711.22 1486.6 711.02 1486.3 710.83 1486 710.71 1485.81 712.37 1484.63"/><polygon class="cls-19" points="706.22 1469.55 706.24 1469.65 706.31 1470 706.39 1470.35 706.47 1470.7 706.55 1471.04 706.64 1471.39 706.73 1471.73 706.83 1472.08 706.92 1472.42 707.02 1472.76 707.04 1472.85 707.08 1472.84 707.35 1472.78 707.61 1472.71 707.88 1472.65 708.15 1472.59 708.41 1472.52 708.68 1472.46 708.96 1472.41 709.23 1472.35 709.5 1472.29 709.77 1472.24 710.05 1472.19 710.32 1472.14 710.59 1472.09 710.87 1472.04 711.14 1471.99 711.42 1471.95 711.7 1471.9 711.98 1471.86 712.26 1471.82 712.53 1471.78 712.81 1471.74 712.92 1471.72 713.17 1473.82 713.07 1473.83 712.8 1473.87 712.53 1473.91 712.26 1473.95 712 1473.99 711.73 1474.04 711.46 1474.08 711.2 1474.12 710.93 1474.17 710.66 1474.22 710.4 1474.27 710.13 1474.32 709.87 1474.37 709.61 1474.42 709.35 1474.48 709.09 1474.53 708.83 1474.59 708.57 1474.65 708.31 1474.71 708.05 1474.77 707.8 1474.83 707.68 1474.86 707.78 1475.13 707.9 1475.47 708.01 1475.8 708.14 1476.13 708.27 1476.46 708.4 1476.79 708.53 1477.12 708.66 1477.45 708.8 1477.77 708.93 1478.1 709.07 1478.42 709.22 1478.74 709.36 1479.06 709.45 1479.26 707.66 1480.19 707.56 1479.98 707.41 1479.64 707.26 1479.31 707.12 1478.97 706.97 1478.63 706.83 1478.29 706.69 1477.95 706.55 1477.61 706.42 1477.26 706.29 1476.92 706.15 1476.57 706.03 1476.21 705.9 1475.87 705.78 1475.52 705.74 1475.39 705.54 1475.45 705.29 1475.52 705.05 1475.6 704.81 1475.68 704.57 1475.76 704.33 1475.84 704.09 1475.91 703.85 1476 703.63 1476.08 702.99 1474.08 703.22 1473.99 703.47 1473.9 703.72 1473.82 703.97 1473.74 704.23 1473.66 704.48 1473.58 704.73 1473.49 704.99 1473.42 705.11 1473.38 705 1473.03 704.9 1472.66 704.81 1472.3 704.71 1471.94 704.62 1471.58 704.53 1471.21 704.45 1470.85 704.37 1470.48 704.29 1470.11 704.27 1470.01 706.22 1469.55"/><polygon class="cls-19" points="706.43 1453.33 706.4 1453.45 706.31 1453.8 706.22 1454.15 706.14 1454.49 706.07 1454.84 706 1455.19 705.93 1455.54 705.87 1455.89 705.81 1456.24 705.75 1456.59 705.7 1456.94 705.65 1457.29 705.61 1457.64 705.57 1458 705.53 1458.35 705.5 1458.7 705.47 1459.06 705.45 1459.41 705.43 1459.76 705.41 1460.12 705.4 1460.47 705.38 1460.82 705.38 1461.18 705.38 1461.53 705.38 1461.89 705.38 1462.24 705.39 1462.6 705.4 1462.95 705.41 1463.31 705.42 1463.44 703.43 1463.57 703.42 1463.41 703.4 1463.04 703.39 1462.66 703.38 1462.28 703.38 1461.9 703.38 1461.53 703.38 1461.15 703.39 1460.77 703.4 1460.39 703.41 1460.02 703.43 1459.64 703.45 1459.27 703.48 1458.89 703.51 1458.51 703.54 1458.13 703.58 1457.76 703.63 1457.38 703.67 1457.01 703.73 1456.63 703.78 1456.25 703.84 1455.88 703.9 1455.5 703.97 1455.13 704.04 1454.75 704.12 1454.38 704.2 1454.01 704.28 1453.64 704.37 1453.27 704.47 1452.89 704.5 1452.77 706.43 1453.33"/><polygon class="cls-19" points="710.02 1445.11 709.82 1445.43 709.62 1445.75 709.43 1446.07 709.24 1446.39 709.06 1446.72 708.88 1447.05 708.71 1447.38 708.57 1447.66 706.8 1446.68 706.96 1446.37 707.14 1446.01 707.33 1445.66 707.53 1445.31 707.73 1444.96 707.93 1444.62 708.14 1444.27 708.36 1443.93 710.02 1445.11"/><path class="cls-19" d="M715.87,1443.57a6,6,0,0,0-7.3-4.65,6.4,6.4,0,0,0-4.4,7.72,6,6,0,0,0,7.3,4.65A6.41,6.41,0,0,0,715.87,1443.57Z"/><path class="cls-19" d="M475.54,1758.45c1.44,1.12,3.33-1.34,2.09-2.94a1.3,1.3,0,0,0-.23-.23L477,1755l-.61-.47-.6-.47-.61-.47-.61-.48-.6-.48-.6-.48-.6-.49-.6-.49-.59-.5-.6-.5-.59-.5-.59-.5-.59-.51-.59-.52-.59-.51-.58-.52-.58-.52-.58-.52-.58-.52-.37-.34c-1.23-1.18-3.25.77-2.37,2.58a1.65,1.65,0,0,0,.32.43l.38.34.59.54.59.52.59.52.59.52.59.52.6.52.6.52.6.51.6.51.61.51.61.51.61.5.61.49.61.5.61.49.61.48.62.48.62.49.62.47Z"/><path class="cls-19" d="M496.58,1772.23c1.62.87,3.19-1.85,1.77-3.21a1.59,1.59,0,0,0-.24-.18l-.17-.08-.65-.37-.65-.36-.65-.37-.65-.37-.65-.38-.65-.38-.64-.38-.65-.39-.64-.39-.65-.4-.64-.4-.64-.4-.64-.41-.64-.41-.64-.41-.63-.42-.63-.41-.64-.42-.63-.42-.63-.42-.12-.08c-1.42-1-3.19,1.31-2.09,2.9a1.51,1.51,0,0,0,.35.35l.14.09.64.43.64.43.64.42.64.42.65.42.64.41.65.41.65.42.65.41.65.41.65.4.65.4.66.4.66.39.66.38.66.39.66.37.66.38.66.37.67.37Z"/><path class="cls-19" d="M519.21,1782.47c1.93.63,3-2.82,1.15-3.55l-.4-.14-.68-.25-.68-.25-.68-.25-.68-.25-.68-.26-.68-.26-.68-.27-.67-.27-.67-.27-.68-.28-.67-.29-.67-.28-.67-.3-.67-.29-.67-.3-.67-.3-.67-.31-.67-.3-.67-.31-.67-.31-.23-.11a1.39,1.39,0,0,0-1.55.28c-1,.91-.92,2.67.15,3.17l.24.11.67.32.68.31.68.32.68.3.68.3.68.3.68.3.68.3.68.29.69.29.69.28.69.29.69.27.69.27.69.27.69.27.69.26.69.25.69.25.69.25Z"/><path class="cls-19" d="M543.2,1788.55c1.82.27,2.67-2.83,1-3.57a1.35,1.35,0,0,0-.32-.09l-.63-.1-.69-.11-.69-.11-.69-.12-.69-.13-.69-.13-.69-.13-.69-.14-.69-.14-.69-.14-.69-.15-.69-.15-.69-.15-.69-.16-.69-.16-.69-.17-.69-.17-.68-.18-.69-.18-.68-.19-.69-.19-.47-.13c-1.79-.49-2.92,2.63-1.19,3.53l.2.08.48.14.7.19.7.19.7.19.7.18.7.18.7.17.7.17.7.16.7.15.7.16.7.15.7.14.7.14.7.14.7.13.7.14.7.13.7.12.7.12.7.11Z"/><path class="cls-19" d="M568.14,1789.58c1.87-.15,2.29-3.46.27-3.7h-.16l-.37,0-.67,0-.68,0-.68,0-.68,0-.68,0-.68,0-.68,0-.68,0H559l-.68,0-.69,0-.69,0-.68,0-.68,0-.69,0-.68,0-.68,0-.61,0a1.5,1.5,0,0,0-1,.36c-1.25,1-.87,3.24.56,3.34l.62,0,.7,0,.7,0,.7,0,.7,0,.7,0,.7,0,.7,0,.7,0h4.2l.7,0,.7,0,.69,0,.7,0,.69,0,.69,0,.7-.05Z"/><path class="cls-19" d="M593.26,1784.43a2,2,0,0,0,1.22-1.57c.22-1.29-.73-2.36-1.82-2l-.25.09-.64.22-.65.21-.65.21-.65.2-.65.19-.65.19-.65.19-.65.19-.66.18-.66.18-.66.17-.66.17-.66.16-.66.16-.66.14-.66.15-.66.14-.66.14-.66.14-.67.13-.66.13-.67.12-.51.08a1.9,1.9,0,0,0-1.42,1.48c-.29,1.26.48,2.35,1.56,2.18l.53-.09.69-.12.68-.13.68-.14.68-.14.68-.14.68-.14.68-.15.68-.16.68-.16.68-.16.68-.18.68-.17.67-.19.67-.19.67-.19.67-.2.67-.19.67-.2.67-.21.67-.22.67-.22.66-.23Z"/><path class="cls-19" d="M613,1774.93c1.64-1,1-3.92-.86-3.41a1.33,1.33,0,0,0-.38.18l-.6.37-.6.37-.61.36-.61.36-.61.35-.61.36-.61.34-.62.34-.62.34-.61.33-.62.32-.62.32-.62.31-.62.31-.63.3-.63.3-.38.18a1.87,1.87,0,0,0-.87.88c-.74,1.57.36,3.16,1.76,2.56l.4-.19.65-.3.64-.31.65-.32.64-.32.64-.33.64-.34.64-.34.64-.35.64-.36.63-.36.63-.36.63-.36.63-.37.63-.37.63-.39Z"/><path class="cls-19" d="M447.76,1726.7c-1.25-1.47-3.41.58-2.51,2.43a1.55,1.55,0,0,0,.19.29l.52.62.52.62.52.62.53.62.52.61.53.61.53.61.54.6.54.6.54.6.54.6.54.59.55.59.55.59.55.58.55.58.55.58.56.58.56.58.56.58.13.13a1.34,1.34,0,0,0,1.86,0,2.09,2.09,0,0,0,.29-3l-.13-.13-.55-.56-.55-.57-.55-.57-.55-.58-.54-.58-.54-.58-.54-.58-.54-.58-.54-.58-.53-.59-.53-.59-.53-.59-.53-.6-.52-.6-.52-.6-.52-.61-.52-.6-.51-.61-.51-.61Z"/><path class="cls-19" d="M442.29,1719.91a7.21,7.21,0,0,0-3.94,9.14,6.64,6.64,0,0,0,8.79,3.91,7.22,7.22,0,0,0,3.94-9.14A6.64,6.64,0,0,0,442.29,1719.91Z"/><path class="cls-13" d="M568.86,1308.9h58.26a3.75,3.75,0,0,1,3.74,3.74h0a3.75,3.75,0,0,1-3.74,3.73H568.86a3.74,3.74,0,0,1-3.73-3.73h0A3.74,3.74,0,0,1,568.86,1308.9Z"/><path class="cls-20" d="M627.1,1306.32a6.19,6.19,0,1,1-6.18,6.19A6.19,6.19,0,0,1,627.1,1306.32Z"/><path class="cls-6" d="M627.1,1309.9a2.6,2.6,0,1,1-2.59,2.6A2.61,2.61,0,0,1,627.1,1309.9Z"/><path class="cls-12" d="M568.86,1324.89h76.31a3.73,3.73,0,0,1,3.73,3.73h0a3.73,3.73,0,0,1-3.73,3.73H568.86a3.73,3.73,0,0,1-3.73-3.73h0A3.73,3.73,0,0,1,568.86,1324.89Z"/><path class="cls-20" d="M645.15,1322.31a6.18,6.18,0,1,1-6.19,6.18A6.18,6.18,0,0,1,645.15,1322.31Z"/><path class="cls-6" d="M645.15,1325.89a2.6,2.6,0,1,1-2.6,2.59A2.6,2.6,0,0,1,645.15,1325.89Z"/><path class="cls-21" d="M568.86,1340.87H676.09a3.75,3.75,0,0,1,3.74,3.73h0a3.75,3.75,0,0,1-3.74,3.74H568.86a3.74,3.74,0,0,1-3.73-3.74h0A3.74,3.74,0,0,1,568.86,1340.87Z"/><path class="cls-20" d="M676.09,1338.29a6.18,6.18,0,1,1-6.19,6.19A6.18,6.18,0,0,1,676.09,1338.29Z"/><path class="cls-6" d="M676.09,1341.87a2.6,2.6,0,1,1-2.61,2.6A2.6,2.6,0,0,1,676.09,1341.87Z"/><path class="cls-14" d="M568.86,1356.84H663.2a3.75,3.75,0,0,1,3.74,3.74h0a3.75,3.75,0,0,1-3.74,3.73H568.86a3.74,3.74,0,0,1-3.73-3.73h0A3.74,3.74,0,0,1,568.86,1356.84Z"/><path class="cls-20" d="M663.19,1354.26a6.19,6.19,0,1,1-6.18,6.19A6.19,6.19,0,0,1,663.19,1354.26Z"/><path class="cls-6" d="M663.19,1357.85a2.6,2.6,0,1,1-2.59,2.61A2.6,2.6,0,0,1,663.19,1357.85Z"/><path class="cls-12" d="M568.86,1372.82h78.89a3.74,3.74,0,0,1,3.73,3.74h0a3.74,3.74,0,0,1-3.73,3.74H568.86a3.74,3.74,0,0,1-3.73-3.74h0A3.74,3.74,0,0,1,568.86,1372.82Z"/><ellipse class="cls-16" cx="647.73" cy="1376.44" rx="6.19" ry="6.18"/><path class="cls-6" d="M647.73,1373.83a2.6,2.6,0,1,1-2.6,2.6A2.62,2.62,0,0,1,647.73,1373.83Z"/><path class="cls-21" d="M568.86,1388.82h99.51a3.74,3.74,0,0,1,3.73,3.73h0a3.74,3.74,0,0,1-3.73,3.74H568.86a3.74,3.74,0,0,1-3.73-3.74h0A3.74,3.74,0,0,1,568.86,1388.82Z"/><ellipse class="cls-16" cx="668.35" cy="1392.42" rx="6.19" ry="6.18"/><path class="cls-6" d="M668.35,1389.82a2.6,2.6,0,1,1-2.6,2.6A2.6,2.6,0,0,1,668.35,1389.82Z"/><rect class="cls-8" x="555.2" y="1406.19" width="141.26" height="3.5"/><rect class="cls-8" x="554.04" y="1299.4" width="3.5" height="110.29"/><polygon class="cls-9" points="706.22 1408.15 699.8 1404.9 693.37 1401.67 693.37 1408.15 693.37 1414.63 699.8 1411.38 706.22 1408.15"/><polygon class="cls-9" points="555.71 1288.3 558.95 1294.73 562.18 1301.17 555.71 1301.17 549.23 1301.17 552.46 1294.73 555.71 1288.3"/></g><g class="cls-22"><g class="cls-23"><path class="cls-16" d="M899.22,1534.79H802.37a12.12,12.12,0,0,0-12.11,12.11v118.64a12.12,12.12,0,0,0,12.11,12.11h96.85a12.12,12.12,0,0,0,12.11-12.11V1546.89a12.12,12.12,0,0,0-12.11-12.11Zm0,0"/></g><path class="cls-7" d="M899.09,1544.47a2.53,2.53,0,0,1,2.54,2.52v118.44a2.53,2.53,0,0,1-2.54,2.52H802.49a2.53,2.53,0,0,1-2.54-2.52V1547a2.53,2.53,0,0,1,2.54-2.52Zm0,0"/><path class="cls-24" d="M833.84,1588.05H819.32a4.85,4.85,0,0,1-4.84-4.84v-14.53a4.85,4.85,0,0,1,4.84-4.84h14.53a4.85,4.85,0,0,1,4.84,4.84v14.53a4.85,4.85,0,0,1-4.84,4.84Zm-14.53-19.37v14.53h14.53v-14.53Zm0,0"/><path class="cls-25" d="M853.21,1571.11h-7.26a2.42,2.42,0,0,1,0-4.84h7.26a2.42,2.42,0,1,1,0,4.84Zm0,0"/><path class="cls-26" d="M882.27,1580.79H845.95a2.42,2.42,0,0,1,0-4.84h36.32a2.42,2.42,0,1,1,0,4.84Zm0,0"/><path class="cls-25" d="M870.16,1605H845.95a2.42,2.42,0,0,1,0-4.84h24.21a2.42,2.42,0,1,1,0,4.84Zm0,0"/><path class="cls-26" d="M882.27,1614.69H845.95a2.42,2.42,0,0,1,0-4.84h36.32a2.42,2.42,0,1,1,0,4.84Zm0,0"/><path class="cls-25" d="M855.63,1636.48h-9.69a2.42,2.42,0,0,1,0-4.84h9.69a2.42,2.42,0,0,1,0,4.84Zm0,0"/><path class="cls-26" d="M882.27,1646.16H845.95a2.42,2.42,0,1,1,0-4.84h36.32a2.42,2.42,0,1,1,0,4.84Zm0,0"/><path class="cls-26" d="M860.48,1534.79a2.42,2.42,0,0,1-2.42-2.42v-2.42a2.42,2.42,0,0,0-2.42-2.42h-9.69a2.42,2.42,0,0,0-2.42,2.42v2.42a2.42,2.42,0,0,1-4.84,0v-2.42a7.27,7.27,0,0,1,7.26-7.26h9.69a7.27,7.27,0,0,1,7.26,7.26v2.42a2.42,2.42,0,0,1-2.42,2.42Zm0,0"/><path class="cls-24" d="M877.42,1529.94H824.16a2.42,2.42,0,0,0-2.42,2.42v7.26a12.11,12.11,0,0,0,12.11,12.11h33.9a12.11,12.11,0,0,0,12.11-12.11v-7.26a2.42,2.42,0,0,0-2.42-2.42Zm0,0"/><path class="cls-24" d="M833.84,1619.53H819.32a4.85,4.85,0,0,1-4.84-4.84v-14.53a4.85,4.85,0,0,1,4.84-4.84h14.53a4.85,4.85,0,0,1,4.84,4.84v14.53a4.85,4.85,0,0,1-4.84,4.84Zm-14.53-19.37v14.53h14.53v-14.53Zm0,0"/><path class="cls-24" d="M833.84,1651H819.32a4.85,4.85,0,0,1-4.84-4.84v-14.53a4.85,4.85,0,0,1,4.84-4.84h14.53a4.85,4.85,0,0,1,4.84,4.84v14.53a4.85,4.85,0,0,1-4.84,4.84Zm-14.53-19.37v14.53h14.53v-14.53Zm0,0"/><path class="cls-27" d="M829,1612.27a2.41,2.41,0,0,1-1.71-.71l-4.84-4.84a2.42,2.42,0,0,1,3.42-3.42l3.13,3.13L839.39,1596a2.42,2.42,0,0,1,3.42,3.42l-12.11,12.11a2.41,2.41,0,0,1-1.71.71Zm0,0"/></g></svg>