<svg id="Layer_1" data-name="Layer 1" xmlns="http://www.w3.org/2000/svg" xmlns:xlink="http://www.w3.org/1999/xlink" viewBox="0 0 1280 790.16"><defs><style>.cls-1{fill:none;}.cls-2{opacity:0.45;}.cls-3{fill:#fefefe;}.cls-4{fill:#fff;}.cls-5{fill:#384146;}.cls-6{fill:#f7931e;}.cls-7{fill:#64d0da;}.cls-8{fill:#fe912a;}.cls-9{fill:#ffca5a;}.cls-10{fill:#e34856;}.cls-11{fill:#2d96b3;}.cls-12{fill:#055586;}.cls-13{fill:#df2938;}.cls-14{fill:#fdfdfd;}.cls-15{clip-path:url(#clip-path);}.cls-16{fill:#b4b6bc;}.cls-17{fill:#5c546a;}.cls-18{fill:#868491;}.cls-19{fill:#ff4f19;}</style><clipPath id="clip-path"><rect class="cls-1" x="752" y="375.96" width="121.1" height="155.6"/></clipPath></defs><title>evaluate-course-background-update</title><g id="_Group_" data-name="&lt;Group&gt;"><rect id="_Path_" data-name="&lt;Path&gt;" class="cls-1" x="0.9" y="-1132.44" width="1292.4" height="1923.4"/></g><rect class="cls-1" y="-1129.84" width="1280" height="1920"/><g class="cls-2"><path class="cls-3" d="M376.5,200.26a32.86,32.86,0,1,1,44.9,12,32.87,32.87,0,0,1-44.9-12Zm4-2.2a28.34,28.34,0,1,0,10.4-38.7A28.32,28.32,0,0,0,380.5,198.06Z"/><path class="cls-3" d="M385.4,184a4,4,0,1,1,5.9-5.3l12,8.7L420.2,173a4,4,0,1,1,5.9,5.3l-19.9,22.3a3.89,3.89,0,0,1-2.8,1.3h-.3a3.89,3.89,0,0,1-2.8-1.3Z"/><path class="cls-4" d="M620.5,126.66a53.16,53.16,0,0,0,6.6-3.7,8.36,8.36,0,0,1,.7-11.4,8.58,8.58,0,0,1,11.5-.4,43,43,0,0,0,3.9-6.5,8.45,8.45,0,0,1,4.6-16.2,48.06,48.06,0,0,0,.1-7.6,8.5,8.5,0,0,1-4.2-16.4,53.14,53.14,0,0,0-3.7-6.6,8.36,8.36,0,0,1-11.4-.7,8.46,8.46,0,0,1-.4-11.4,43,43,0,0,0-6.5-3.9A8.45,8.45,0,0,1,611.5,47a8.35,8.35,0,0,1-6-9.7,48.06,48.06,0,0,0-7.6-.1,8.5,8.5,0,0,1-16.4,4.2,53.16,53.16,0,0,0-6.6,3.7,8.36,8.36,0,0,1-.7,11.4,8.46,8.46,0,0,1-11.4.4,43,43,0,0,0-3.9,6.5,8.45,8.45,0,0,1,5.1,10.2,8.35,8.35,0,0,1-9.7,6,48.06,48.06,0,0,0-.1,7.6,8.5,8.5,0,0,1,4.2,16.4,53.14,53.14,0,0,0,3.7,6.6,8.36,8.36,0,0,1,11.4.7,8.46,8.46,0,0,1,.4,11.4,43,43,0,0,0,6.5,3.9,8.45,8.45,0,0,1,10.2-5.1,8.35,8.35,0,0,1,6,9.7,48.06,48.06,0,0,0,7.6.1,8.52,8.52,0,0,1,6.3-9.6,8.4,8.4,0,0,1,10,5.4Zm-14.4-22.4a21,21,0,1,1,15.2-25.5A20.9,20.9,0,0,1,606.1,104.26Z"/><rect class="cls-4" x="484.5" y="169.56" width="278.6" height="174.2"/><path class="cls-5" d="M449.7,358.46h349a2.9,2.9,0,0,1,2.9,2.9v14.7a2.9,2.9,0,0,1-2.9,2.9h-349a2.9,2.9,0,0,1-2.9-2.9v-14.7A2.9,2.9,0,0,1,449.7,358.46Z"/><path class="cls-5" d="M481.3,160.76H767.2a6.7,6.7,0,0,1,6.7,6.7v178.3a6.7,6.7,0,0,1-6.7,6.7H481.3a6.7,6.7,0,0,1-6.7-6.7V167.46a6.64,6.64,0,0,1,6.7-6.7Zm8.1,14.8v162H759v-162Z"/><circle class="cls-4" cx="651.7" cy="250.86" r="4.7"/><path class="cls-4" d="M766.9,299.56c-2.1,3.6-5.6,5.4-9.9,5.8h-.1l-23.1.6a5,5,0,0,1-4-1.8,6.31,6.31,0,0,1-1-5.8h-.4c-3.9-.1-5.2-6.5-2.5-8.9-3.3-1.6-3.5-9.1.6-10.3a6.07,6.07,0,0,1-.3-5.1,7.41,7.41,0,0,1,6.1-4.5h.1l12.3-.5a15.94,15.94,0,0,1-.1-12.5h0a5.54,5.54,0,0,1,5.7-3.6,5.88,5.88,0,0,1,4.9,4.4,13.27,13.27,0,0,1,.3,4,10.48,10.48,0,0,0-.1,2.5,2.45,2.45,0,0,0,.4,1.2c3.3,1.2,8.5,3.6,10.1,7l9.8-.2,6.1,27.4Z"/><path class="cls-6" d="M779.6,297.66l-13.7.3c-1.5,3-4.2,5.3-9.1,5.8l-23.1.6c-3.4.1-4.4-3.9-3.4-5.9l8.8-.2c1.8,0,1.4-1.8,0-1.8l-10.8.3c-2.7-.1-3.4-5.8-.8-6.7l11-.5c1.6-.1,1.3-1.9,0-1.8l-11.5.3c-2.5-.1-3.2-6.7-.1-7.6l12-.3c1.8-.2,1.6-1.8-.2-1.8l-10.6.3c-1.7-1.8-1.3-6.8,4.3-7.7l14.6-.6c-2.5-4.9-2.8-8.6-1-13.5,1.9-4.3,6.8-3.1,7.6.5,1,3.9-.9,6,1.1,8.6,3.4,1.2,9.5,4,9.9,7.3l9.7-.2Z"/><path class="cls-7" d="M600.1,463.36a38.66,38.66,0,0,1,38.6,36.7h0v40.6H600.1a38.65,38.65,0,0,1,0-77.3Z"/><path class="cls-8" d="M682.5,463.36a38.66,38.66,0,0,0-38.6,36.7h0v40.6h38.6a38.65,38.65,0,0,0,0-77.3Z"/><path class="cls-9" d="M600.1,623.06a38.66,38.66,0,0,0,38.6-36.7v-40.5H600.1a38.6,38.6,0,0,0,0,77.2Z"/><path class="cls-10" d="M699.7,657.46a55.89,55.89,0,0,1-55.8-53l-.1.1v-58.7h55.8a55.8,55.8,0,0,1,.1,111.6Z"/><path class="cls-4" d="M687,589.46v3.8l-5.3,21.2H678l5.3-21.2h-7.6v-3.8Zm6.7,3.8v5.3a4,4,0,0,1,1.6-1.2,2.75,2.75,0,0,1,1.3-.2,4.26,4.26,0,0,1,3.7,1.7,7.26,7.26,0,0,1,1,4.2v5.4a6,6,0,0,1-1.8,4.5,5.73,5.73,0,0,1-4.2,1.7,5.39,5.39,0,0,1-4.1-1.8,6.07,6.07,0,0,1-1.6-4.2v-.6l3.6-.3.1.9a2.22,2.22,0,0,0,1.2,2,1.45,1.45,0,0,0,.7.2,2.09,2.09,0,0,0,2.3-2.4v-6.1a2.5,2.5,0,0,0-.8-1.8,1.8,1.8,0,0,0-1.1-.3,1.65,1.65,0,0,0-1.5.8,2.5,2.5,0,0,0-.4,1.4v.7h-3.8v-13.6h11v3.8h-7.2Zm18.9,5.4a3.1,3.1,0,0,1-.9,2.2,3.1,3.1,0,0,1-5.3-2.2v-7.1a3.11,3.11,0,0,1,5.3-2.2,3.1,3.1,0,0,1,.9,2.2v7.1Zm-4.3-.1a1.1,1.1,0,1,0,2.2,0v-7.1a1.1,1.1,0,1,0-2.2,0v7.1Zm12.3,2.6a3.07,3.07,0,0,1,3.1,3.1v7.1a3.1,3.1,0,1,1-6.2,0v-7.1a3.07,3.07,0,0,1,3.1-3.1Zm1.1,3.1a1.1,1.1,0,1,0-2.2,0v7.1a1.1,1.1,0,1,0,2.2,0v-7.1Zm-11.9,10.6,12.7-26.4h-2.2l-12.7,26.4Z"/><path class="cls-4" d="M575.6,496.86c0-2.4.6-4.2,1.9-5.4a5.73,5.73,0,0,1,4.3-1.6,5.35,5.35,0,0,1,4.2,1.9,5.88,5.88,0,0,1,1.7,4.3,12.06,12.06,0,0,1-1.1,4.9,33.09,33.09,0,0,1-2.9,4.5l-1.8,2.7-.7,1c-.4.7-.8,1.2-1,1.6-.1.2-.2.3-.2.4h7.4v3.7h-12v-3.4c0-.1.3-.5.8-1.4.3-.4.5-.8.9-1.3l1-1.4c.6-.8,1.5-2,2.7-3.8a23.82,23.82,0,0,0,2.6-4.4,7.21,7.21,0,0,0,.7-3,2.88,2.88,0,0,0-.6-1.9,2.17,2.17,0,0,0-1.8-.8,2.22,2.22,0,0,0-2.2,1.8,5.9,5.9,0,0,0-.2,1.4v.9h-3.7v-.7Zm18.9-3.3v5.3a4,4,0,0,1,1.6-1.2,5.07,5.07,0,0,1,1.3-.2,4.26,4.26,0,0,1,3.7,1.7,7.26,7.26,0,0,1,1,4.2v5.4a6,6,0,0,1-1.8,4.5,5.73,5.73,0,0,1-4.2,1.7,5.39,5.39,0,0,1-4.1-1.8,6.07,6.07,0,0,1-1.6-4.2v-.6l3.6-.3.1.9a2.22,2.22,0,0,0,1.2,2,1.45,1.45,0,0,0,.7.2,2.09,2.09,0,0,0,2.3-2.4v-6.1a2.5,2.5,0,0,0-.8-1.8,1.8,1.8,0,0,0-1.1-.3,1.65,1.65,0,0,0-1.5.8,2.5,2.5,0,0,0-.4,1.4v.7h-3.8v-13.6h11v3.8h-7.2Zm19,5.5a3.1,3.1,0,0,1-.9,2.2,3.1,3.1,0,0,1-5.3-2.2V492a3.11,3.11,0,0,1,5.3-2.2,3.1,3.1,0,0,1,.9,2.2v7.1Zm-4.3-.1a1.1,1.1,0,1,0,2.2,0v-7.1a1.1,1.1,0,1,0-2.2,0V499Zm12.2,2.6a2.94,2.94,0,0,1,2.2.9,3.1,3.1,0,0,1,.9,2.2v7.1a3.1,3.1,0,1,1-6.2,0v-7.1a2.94,2.94,0,0,1,.9-2.2,3.1,3.1,0,0,1,2.2-.9Zm1.1,3.1a1.1,1.1,0,1,0-2.2,0v7.1a1.1,1.1,0,1,0,2.2,0v-7.1Zm-11.9,10.5,12.7-26.4h-2.2l-12.7,26.4Z"/><path class="cls-4" d="M656.2,496.86c0-2.4.6-4.2,1.9-5.4a5.73,5.73,0,0,1,4.3-1.6,5.35,5.35,0,0,1,4.2,1.9,5.88,5.88,0,0,1,1.7,4.3,12.06,12.06,0,0,1-1.1,4.9,33.09,33.09,0,0,1-2.9,4.5l-1.8,2.7-.7,1c-.4.7-.8,1.2-1,1.6-.1.2-.2.3-.2.4H668v3.7H656v-3.4c0-.1.3-.5.8-1.4.3-.4.5-.8.9-1.3l1-1.4c.6-.8,1.5-2,2.7-3.8a23.82,23.82,0,0,0,2.6-4.4,7.21,7.21,0,0,0,.7-3,2.88,2.88,0,0,0-.6-1.9,2.17,2.17,0,0,0-1.8-.8,2.22,2.22,0,0,0-2.2,1.8,5.9,5.9,0,0,0-.2,1.4v.9h-3.7v-.7Zm18.9-3.3v5.3a4,4,0,0,1,1.6-1.2,5.07,5.07,0,0,1,1.3-.2,4.26,4.26,0,0,1,3.7,1.7,7.26,7.26,0,0,1,1,4.2v5.4a6,6,0,0,1-1.8,4.5,5.73,5.73,0,0,1-4.2,1.7,5.39,5.39,0,0,1-4.1-1.8A6.07,6.07,0,0,1,671,509v-.6l3.6-.3.1.9a2.22,2.22,0,0,0,1.2,2,1.45,1.45,0,0,0,.7.2,2.09,2.09,0,0,0,2.3-2.4v-6.1a2.5,2.5,0,0,0-.8-1.8,1.8,1.8,0,0,0-1.1-.3,1.65,1.65,0,0,0-1.5.8,2.5,2.5,0,0,0-.4,1.4v.7h-3.8v-13.6h11v3.8h-7.2Zm18.9,5.5a3.1,3.1,0,0,1-.9,2.2,3.1,3.1,0,0,1-5.3-2.2V492a3.11,3.11,0,0,1,5.3-2.2,3.1,3.1,0,0,1,.9,2.2v7.1Zm-4.3-.1a1.1,1.1,0,1,0,2.2,0v-7.1a1.1,1.1,0,1,0-2.2,0V499Zm12.3,2.6a2.94,2.94,0,0,1,2.2.9,3.1,3.1,0,0,1,.9,2.2v7.1a3.1,3.1,0,1,1-6.2,0v-7.1a3.07,3.07,0,0,1,3.1-3.1Zm1.1,3.1a1.1,1.1,0,1,0-2.2,0v7.1a1.1,1.1,0,1,0,2.2,0v-7.1Zm-11.9,10.5,12.7-26.4h-2.2L689,515.16Z"/><path class="cls-4" d="M575.6,579.36c0-2.4.6-4.2,1.9-5.4a5.73,5.73,0,0,1,4.3-1.6,5.6,5.6,0,0,1,4.2,1.8,5.88,5.88,0,0,1,1.7,4.3,12.06,12.06,0,0,1-1.1,4.9,33.09,33.09,0,0,1-2.9,4.5l-1.8,2.7-.7,1c-.4.7-.8,1.2-1,1.6-.1.2-.2.3-.2.4h7.4v3.7h-12v-3.4c0-.1.3-.5.8-1.4.3-.4.5-.8.9-1.3l1-1.4c.6-.8,1.5-2,2.7-3.8a23.82,23.82,0,0,0,2.6-4.4,7.21,7.21,0,0,0,.7-3,2.88,2.88,0,0,0-.6-1.9,2.17,2.17,0,0,0-1.8-.8,2.22,2.22,0,0,0-2.2,1.8,5.9,5.9,0,0,0-.2,1.4v1h-3.7v-.7Zm18.9-3.3v5.3a4,4,0,0,1,1.6-1.2,5.07,5.07,0,0,1,1.3-.2,4.26,4.26,0,0,1,3.7,1.7,7.26,7.26,0,0,1,1,4.2v5.4a6,6,0,0,1-1.8,4.5,5.73,5.73,0,0,1-4.2,1.7,5.39,5.39,0,0,1-4.1-1.8,6.07,6.07,0,0,1-1.6-4.2v-.6l3.6-.3.1.9a2.22,2.22,0,0,0,1.2,2,1.45,1.45,0,0,0,.7.2,2.09,2.09,0,0,0,2.3-2.4v-6.1a2.5,2.5,0,0,0-.8-1.8,1.8,1.8,0,0,0-1.1-.3,1.65,1.65,0,0,0-1.5.8,2.5,2.5,0,0,0-.4,1.4v.7h-3.8v-13.6h11v3.8h-7.2Zm19,5.4a3.1,3.1,0,1,1-6.2,0v-7.1a3.11,3.11,0,0,1,5.3-2.2,3.1,3.1,0,0,1,.9,2.2v7.1Zm-4.3-.1a1.1,1.1,0,1,0,2.2,0v-7.1a1.1,1.1,0,1,0-2.2,0v7.1Zm12.2,2.6a3.07,3.07,0,0,1,3.1,3.1v7.1a3.1,3.1,0,1,1-6.2,0v-7.1a2.94,2.94,0,0,1,.9-2.2,3.1,3.1,0,0,1,2.2-.9Zm1.1,3.1a1.1,1.1,0,1,0-2.2,0v7.1a1.1,1.1,0,1,0,2.2,0v-7.1Zm-11.9,10.6,12.7-26.4h-2.2l-12.7,26.4Z"/><rect class="cls-7" x="344.6" y="549.36" width="22.7" height="70.3"/><rect class="cls-11" x="378.7" y="537.96" width="22.7" height="81.7"/><rect class="cls-12" x="412.7" y="472.56" width="22.7" height="147.1"/><rect class="cls-13" x="446.8" y="570.66" width="22.7" height="49"/><rect class="cls-11" x="480.8" y="530.86" width="22.7" height="88.9"/><path class="cls-5" d="M327.6,523.16c2,2.9,7.1,6.9,13,10,5,2.6,10.5,4.7,15.4,5h0c5.1.7,12.5-1,19.2-4.6,5.7-3.1,10.9-7.6,14-13.4,3.7-7.2,6.5-17.4,9.3-27.5,5.6-20.7,11.3-41.4,25.6-38.8,15.2-1.5,18.8,31.4,22.1,61.1,2.6,23.4,4.9,44.7,11.9,44.6h.1c6.5.7,10.1-8.5,13.8-18.1,4.5-11.7,9.3-24,20.3-21.7h0c6.5,1.7,12,1.6,16.2.4,4.9-1.3,7.9-4.1,8.8-7l1.6.5c-1,3.4-4.5,6.6-10,8.1-4.4,1.2-10.2,1.3-17-.4h0c-9.6-2-14.1,9.6-18.4,20.7-4,10.3-7.8,20.1-15.6,19.2-8.5,0-10.9-22-13.5-46.1-3.2-29-6.7-61.2-20.4-59.6h-.3c-12.9-2.5-18.3,17.5-23.7,37.5-2.8,10.2-5.6,20.5-9.4,27.9h0c-3.2,6.1-8.7,10.9-14.7,14.2-7,3.8-14.7,5.5-20.2,4.8h0c-5.1-.4-10.9-2.5-16.1-5.2-6.2-3.3-11.4-7.5-13.6-10.6Z"/><circle class="cls-5" cx="458.1" cy="560.46" r="6.5"/><circle class="cls-4" cx="458.1" cy="560.46" r="2.7"/><circle class="cls-5" cx="492.2" cy="520.56" r="6.5"/><circle class="cls-4" cx="492.2" cy="520.56" r="2.7"/><circle class="cls-5" cx="390" cy="520.56" r="6.5"/><circle class="cls-4" cx="390" cy="520.56" r="2.7"/><circle class="cls-5" cx="356" cy="539.06" r="6.5"/><circle class="cls-4" cx="356" cy="539.06" r="2.7"/><circle class="cls-5" cx="424.1" cy="454.66" r="6.5"/><circle class="cls-4" cx="424.1" cy="454.66" r="2.7"/><path class="cls-4" d="M346,486.36a130.08,130.08,0,0,1-8.8-17l4.8-2a113.87,113.87,0,0,0,8.4,16.3Zm-14.1-32.1a145.85,145.85,0,0,1-5-26l5.2-.5a144.75,144.75,0,0,0,4.8,25.1Zm-5.9-41.7v-2a182.47,182.47,0,0,1,1.6-24.3l5.2.7a191.26,191.26,0,0,0-1.6,23.7v1.9Zm9.3-40.9-5.1-1.1a208,208,0,0,1,7-25.4l4.9,1.7A246.63,246.63,0,0,0,335.3,371.66Zm12.3-39.2-4.8-2a215.77,215.77,0,0,1,11.7-23.6l4.5,2.6A234.11,234.11,0,0,0,347.6,332.46Zm19.7-36-4.3-2.9a188.94,188.94,0,0,1,16.4-20.7l3.8,3.5A178,178,0,0,0,367.3,296.46Zm26.8-30.8-3.5-3.9a140.43,140.43,0,0,1,21.3-15.7l2.6,4.5A132.34,132.34,0,0,0,394.1,265.66Zm34.2-21.9-2-4.8a100,100,0,0,1,25.7-6.9l.7,5.2A85.72,85.72,0,0,0,428.3,243.76Z"/><path class="cls-4" d="M945.3,443.86l-5-1.5a216,216,0,0,0,5.9-25l5.1.9A226.29,226.29,0,0,1,945.3,443.86Zm7.9-41.3-5.2-.5c.5-5.6.7-11.4.7-17,0-2.9-.1-5.8-.2-8.6l5.2-.2c.1,2.9.2,5.9.2,8.9A145.49,145.49,0,0,1,953.2,402.56Zm-5.9-41.5a211.42,211.42,0,0,0-4.8-25.2l5-1.3a200.86,200.86,0,0,1,5,25.9Zm-9.3-39.8a189.42,189.42,0,0,0-10.2-23.5l4.6-2.4a180.37,180.37,0,0,1,10.5,24.2Zm-18-36.8a162.72,162.72,0,0,0-15.4-20.4l3.9-3.4a172.78,172.78,0,0,1,15.9,21Zm-26.1-31.4a160.39,160.39,0,0,0-20-15.9l2.9-4.3a171.33,171.33,0,0,1,20.7,16.4Zm-33.2-23.8a162.36,162.36,0,0,0-23.4-10.2l1.7-4.9a168.41,168.41,0,0,1,24.2,10.5Zm-38.2-14.5a172.08,172.08,0,0,0-25.2-4.2l.5-5.2a183.16,183.16,0,0,1,26,4.3Z"/><circle class="cls-4" cx="455.6" cy="236.66" r="9.7"/><circle class="cls-4" cx="940.2" cy="451.06" r="9.7"/><path class="cls-14" d="M724.7,91.76c1.6.8.3,3.6-1.7,3.2-.1,0-.2-.1-.3-.1l-.4-.2-.7-.3-.7-.3-.7-.3-.7-.3-.7-.3-.7-.3-.7-.3-.7-.3L716,92l-.7-.3-.7-.3-.7-.3-.7-.3-.7-.3-.7-.3-.7-.3-.7-.3-.7-.3L709,89l-.5-.2c-1.6-.6-.8-3.3,1.3-3.3a.9.9,0,0,1,.5.1l.5.2.7.3.7.3.7.3.7.3.7.3.7.3.7.3.7.3.7.3.7.3.7.3.7.3.7.3.7.3.7.3.7.3.7.3.7.3.7.3Z"/><path class="cls-14" d="M746.5,104.46c1.5,1.1-.2,3.7-2.1,3-.1,0-.2-.1-.3-.1l-.2-.1-.6-.4-.6-.4-.6-.4-.6-.4-.6-.4-.6-.4-.6-.4-.6-.4-.6-.4-.6-.4-.6-.4-.6-.4-.7-.4-.6-.4-.7-.4-.7-.4-.7-.4-.7-.4-.7-.4-.7-.4-.1-.1c-1.5-.8-.3-3.4,1.7-3.2.2,0,.3.1.5.2l.1.1.7.4.7.4.7.4.7.4.7.4.7.4.7.4.7.4.7.4.7.4.6.4.7.4.6.4.6.4.6.4.6.4.6.4.6.4.6.4.6.4Z"/><path class="cls-14" d="M765.8,120.06c1.4,1.4-1.2,4-2.7,2.6l-.3-.3-.5-.5-.5-.5-.5-.5-.5-.5-.5-.5-.5-.5-.5-.5-.5-.5-.5-.5-.6-.5-.6-.5-.6-.5-.6-.5-.6-.5-.6-.5-.6-.5-.6-.5-.6-.5-.6-.5-.6-.5-.2-.2a1.24,1.24,0,0,1-.4-1.5c.4-1.3,2-2,2.9-1.3l.2.2.6.5.6.5.6.5.6.5.6.5.6.5.6.5.6.5.6.5.6.5.6.5.6.5.6.5.6.5.6.5.5.5.5.5.5.5.5.5.5.5Z"/><path class="cls-14" d="M782,138.86c1.1,1.5-1.3,3.7-2.7,2.5l-.2-.2-.4-.5-.4-.6-.4-.6-.4-.6-.4-.6-.4-.6-.4-.6-.4-.6-.4-.6-.4-.6-.4-.6-.4-.5-.4-.5-.4-.5-.5-.5-.5-.5-.5-.5-.5-.5-.5-.5-.5-.5-.5-.5-.3-.4c-1.2-1.4,1.1-3.8,2.6-2.6.1,0,.1.1.2.1l.3.4.5.5.5.5.5.5.5.5.5.5.5.6.5.6.5.6.5.6.5.6.4.6.4.6.4.6.4.6.4.6.4.6.4.6.4.6.4.6.4.6Z"/><path class="cls-14" d="M794.1,160.66c.7,1.7-2.1,3.6-3.2,1.9l-.1-.1-.1-.3-.3-.6-.3-.6-.3-.6-.3-.6-.3-.6-.3-.6-.3-.6-.3-.6-.3-.6-.3-.6-.3-.6-.3-.6-.3-.6-.3-.6-.3-.6-.3-.6-.3-.6-.3-.6-.3-.6-.3-.6-.3-.6-.3-.5a1.38,1.38,0,0,1-.1-1.1c.4-1.6,2.5-2.2,3.2-1l.3.5.4.6.3.6.3.6.3.6.3.6.3.6.3.6.3.6.3.6.3.6.3.6.3.6.3.6.3.6.3.6.3.6.3.6.3.6.3.6.3.6.3.6Z"/><path class="cls-14" d="M800.7,185.46a1.82,1.82,0,0,1-.9,1.8c-1.1.8-2.4.4-2.6-.7v-.3l-.1-.7-.1-.7-.1-.7-.1-.7-.1-.7-.1-.7-.1-.7-.1-.7-.1-.7-.1-.7-.1-.7-.1-.7-.1-.7-.2-.7-.2-.7-.2-.7-.2-.7-.2-.7-.2-.7-.2-.7-.2-.7-.2-.6-.2-.5a1.88,1.88,0,0,1,.7-1.9,1.67,1.67,0,0,1,2.7.4l.2.5.2.7.2.7.2.7.2.7.2.7.2.7.2.7.2.7.2.7.2.7.1.7.1.7.1.7.1.7.1.7.1.7.1.7.1.7.1.7.1.7.1.7.1.7Z"/><path class="cls-14" d="M801.1,207.46c-.2,1.9-3.1,2.6-3.4.8v-.4l.1-.7.1-.7.1-.7v-9.5a1.92,1.92,0,0,1,.4-1.2c1.1-1.4,3-1.1,3.1.4v8.8l-.1.7-.1.7-.1.7Z"/><path class="cls-14" d="M683.9,81.06c-1.9-.5-1-3.3,1.1-3.3h.3l.8.2.8.2.8.2.8.2.8.2.8.2.8.2.8.2.8.2.8.2.8.2.8.2.8.2.8.2.8.2.8.2.8.2.8.2.8.2.8.2.2.1a1.37,1.37,0,0,1,.9,1.6,2.18,2.18,0,0,1-2.5,1.6l-.2-.1-.7-.2-.8-.2-.8-.2-.8-.2-.8-.2-.8-.2-.8-.2-.8-.2-.8-.2-.8-.2-.8-.2-.8-.2-.8-.2-.8-.2-.8-.2-.8-.2-.8-.2-.8-.2-.8-.2Z"/><path class="cls-14" d="M675.4,79.26a7.18,7.18,0,0,1,6.4-7.6,6.63,6.63,0,0,1,7.4,6.1,7.18,7.18,0,0,1-6.4,7.6A6.58,6.58,0,0,1,675.4,79.26Z"/><polygon class="cls-14" points="673.4 462.76 673.4 462.96 673.4 463.66 673.5 464.26 673.5 464.86 673.6 465.56 673.6 466.16 673.7 466.76 673.7 467.46 673.8 468.06 673.8 468.66 673.9 469.26 674 469.96 674 470.56 674.1 471.16 674.2 471.76 674.3 472.36 674.3 473.06 674.4 473.26 672.4 473.56 672.3 473.26 672.3 472.66 672.2 472.06 672.1 471.46 672 470.76 672 470.16 671.9 469.56 671.8 468.86 671.8 468.26 671.7 467.66 671.7 466.96 671.6 466.36 671.6 465.76 671.5 465.06 671.5 464.46 671.4 463.76 671.4 463.16 671.4 462.96 673.4 462.76"/><polygon class="cls-14" points="673.2 445.96 673.1 446.36 673.1 446.96 673.1 447.66 673.1 448.26 673.1 448.96 673 449.56 673 450.16 673 450.86 673 451.46 673 452.16 673 452.76 673 453.46 673 454.06 673 454.66 673 455.36 673.1 455.96 673.1 456.46 671.1 456.56 671.1 456.06 671 455.36 671 454.76 671 454.06 671 453.46 671 452.76 671 452.16 671 451.46 671 450.86 671 450.16 671 449.56 671.1 448.86 671.1 448.26 671.1 447.56 671.1 446.96 671.1 446.26 671.2 445.96 673.2 445.96"/><polygon class="cls-14" points="674.9 429.36 674.9 429.36 674.8 430.06 674.7 430.66 674.6 431.26 674.5 431.86 674.4 432.46 674.3 433.06 674.3 433.76 674.2 434.36 674.1 434.96 674 435.56 673.9 436.26 673.9 436.86 673.8 437.46 673.7 438.06 673.7 438.76 673.6 439.36 673.6 439.76 671.6 439.56 671.6 439.16 671.7 438.56 671.7 437.86 671.8 437.26 671.9 436.56 671.9 435.96 672 435.36 672.1 434.66 672.2 434.06 672.3 433.36 672.4 432.76 672.5 432.16 672.5 431.56 672.6 430.86 672.7 430.26 672.9 429.66 673 429.06 673 428.96 674.9 429.36"/><polygon class="cls-14" points="679.2 413.26 679.1 413.66 678.9 414.26 678.7 414.76 678.5 415.36 678.3 415.96 678.1 416.46 677.9 417.06 677.8 417.56 677.6 418.16 677.4 418.76 677.2 419.36 677.1 419.86 676.9 420.46 676.8 421.06 676.6 421.66 676.5 422.26 676.3 422.76 676.2 423.26 674.3 422.76 674.4 422.26 674.5 421.66 674.7 421.06 674.8 420.46 675 419.86 675.2 419.26 675.3 418.66 675.5 418.06 675.7 417.56 675.9 416.96 676 416.36 676.2 415.76 676.4 415.16 676.6 414.66 676.8 414.06 677 413.46 677.2 412.96 677.4 412.56 679.2 413.26"/><polygon class="cls-14" points="686.8 398.76 686.8 398.86 686.5 399.26 686.2 399.76 685.9 400.16 685.6 400.66 685.3 401.06 685 401.56 684.7 401.96 684.4 402.46 684.1 402.96 683.8 403.46 683.6 403.86 683.3 404.36 683 404.86 682.8 405.36 682.5 405.86 682.3 406.36 682 406.86 681.8 407.36 681.6 407.56 679.9 406.66 680 406.36 680.2 405.86 680.5 405.36 680.8 404.86 681 404.36 681.3 403.86 681.6 403.36 681.9 402.86 682.1 402.36 682.4 401.86 682.7 401.36 683 400.86 683.3 400.36 683.6 399.86 683.9 399.46 684.3 398.96 684.6 398.46 684.9 398.06 685.2 397.56 685.3 397.56 686.8 398.76"/><polygon class="cls-14" points="698.3 387.86 698.3 387.86 698.1 387.96 698 388.06 697.8 388.16 697.6 388.26 697.4 388.46 697.2 388.56 697.1 388.66 696.9 388.76 696.5 389.06 696 389.36 695.6 389.66 695.2 390.06 694.8 390.36 694.4 390.66 694 391.06 693.6 391.36 693.2 391.76 692.8 392.06 692.4 392.46 692 392.76 691.6 393.16 691.3 393.56 690.9 393.96 690.7 394.16 689.3 392.66 689.5 392.46 689.9 392.06 690.3 391.66 690.7 391.26 691.1 390.86 691.5 390.46 691.9 390.16 692.3 389.76 692.7 389.36 693.1 389.06 693.6 388.66 694 388.36 694.4 387.96 694.9 387.66 695.3 387.36 695.8 387.06 696 386.86 696.2 386.76 696.4 386.66 696.5 386.46 696.7 386.36 696.9 386.26 697.1 386.16 697.4 385.96 697.4 385.96 698.3 387.86"/><polygon class="cls-14" points="728.9 383.46 728.7 383.36 728.5 383.36 728.3 383.26 728 383.26 727.8 383.26 727.5 383.16 727.3 383.16 727 383.06 726.8 383.06 726.5 383.06 726.3 382.96 726 382.96 725.7 382.96 725.5 382.96 725.2 382.86 725 382.86 724.7 382.86 724.5 382.86 724.2 382.76 723.9 382.76 723.7 382.76 723.4 382.76 723.1 382.76 722.9 382.66 722.6 382.66 722.3 382.66 722.1 382.66 721.8 382.66 721.5 382.66 721.3 382.66 721 382.66 720.7 382.66 720.5 382.66 720.2 382.66 719.9 382.66 719.7 382.66 719.4 382.66 719.1 382.66 719.1 380.56 719.3 380.56 719.6 380.56 719.9 380.56 720.2 380.56 720.5 380.56 720.7 380.56 721 380.56 721.3 380.56 721.6 380.56 721.9 380.56 722.1 380.56 722.4 380.56 722.7 380.56 723 380.56 723.2 380.56 723.5 380.66 723.8 380.66 724.1 380.66 724.3 380.66 724.6 380.66 724.9 380.76 725.2 380.76 725.4 380.76 725.7 380.76 726 380.86 726.2 380.86 726.5 380.86 726.8 380.96 727 380.96 727.3 380.96 727.5 381.06 727.8 381.06 728.1 381.16 728.3 381.16 728.6 381.26 728.8 381.26 729.1 381.36 729.2 381.36 728.9 383.46"/><path class="cls-14" d="M741.3,391.16c-1.3-3-4.1-4.9-6.9-6.1l.7-2c3.3,1.4,6.5,3.6,8,7.2Z"/><polygon class="cls-14" points="737.1 405.26 737.2 405.16 737.4 404.96 737.6 404.76 737.7 404.66 737.9 404.46 738.1 404.26 738.2 404.06 738.4 403.86 738.5 403.66 738.7 403.46 738.8 403.26 739 402.96 739.1 402.76 739.3 402.56 739.4 402.26 739.6 402.06 739.7 401.76 739.9 401.56 740 401.26 740.1 400.96 740.3 400.76 740.4 400.46 740.5 400.26 740.6 400.06 740.7 399.76 740.8 399.56 740.9 399.26 741 399.06 741.1 398.86 741.2 398.56 741.2 398.36 741.3 398.16 741.4 397.86 741.4 397.66 741.5 397.46 741.6 397.26 741.6 397.06 741.7 396.86 741.7 396.76 743.6 397.16 743.6 397.26 743.6 397.56 743.5 397.76 743.4 398.06 743.4 398.26 743.3 398.56 743.2 398.76 743.1 399.06 743 399.36 742.9 399.56 742.8 399.86 742.7 400.06 742.6 400.36 742.5 400.66 742.4 400.86 742.3 401.16 742.2 401.46 742 401.76 741.9 401.96 741.8 402.26 741.6 402.56 741.5 402.86 741.3 403.16 741.1 403.46 741 403.66 740.8 403.96 740.6 404.26 740.5 404.46 740.3 404.76 740.1 404.96 739.9 405.16 739.7 405.46 739.6 405.66 739.4 405.86 739.2 406.06 739 406.26 738.8 406.46 738.6 406.66 738.5 406.86 737.1 405.26"/><polygon class="cls-14" points="723.4 405.36 723.5 405.46 723.7 405.56 723.9 405.76 724.2 405.86 724.4 405.96 724.6 406.06 724.8 406.16 725.1 406.26 725.3 406.46 725.5 406.56 725.7 406.66 726 406.76 726.2 406.76 726.4 406.86 726.6 406.96 726.8 407.06 727.1 407.16 727.3 407.16 727.5 407.26 727.7 407.36 727.9 407.36 728.2 407.46 728.4 407.46 728.6 407.56 728.8 407.56 729 407.66 729.2 407.66 729.4 407.66 729.7 407.76 729.9 407.76 730.1 407.76 730.3 407.76 730.5 407.76 730.7 407.76 730.9 407.76 731.1 407.76 731.3 407.76 731.5 407.76 731.7 407.76 731.9 407.76 732.1 407.76 732.3 407.66 732.6 409.76 732.4 409.86 732.1 409.86 731.9 409.86 731.6 409.86 731.4 409.86 731.2 409.96 730.9 409.96 730.7 409.96 730.4 409.86 730.2 409.86 729.9 409.86 729.7 409.86 729.4 409.86 729.2 409.76 728.9 409.76 728.7 409.76 728.4 409.66 728.2 409.66 727.9 409.56 727.7 409.56 727.4 409.46 727.2 409.36 727 409.26 726.7 409.26 726.5 409.16 726.2 409.06 726 408.96 725.7 408.86 725.5 408.76 725.2 408.66 725 408.56 724.7 408.46 724.5 408.36 724.2 408.26 724 408.06 723.7 407.96 723.5 407.86 723.2 407.76 723 407.56 722.7 407.46 722.5 407.26 722.4 407.26 723.4 405.36"/><polygon class="cls-14" points="712.4 393.96 712.5 394.16 712.7 394.46 712.9 394.76 713.1 394.96 713.3 395.26 713.5 395.56 713.7 395.86 713.9 396.06 714 396.36 714.2 396.66 714.4 396.86 714.6 397.16 714.8 397.46 715 397.66 715.2 397.96 715.4 398.16 715.6 398.46 715.8 398.66 716.1 398.96 716.3 399.16 716.5 399.36 716.7 399.66 716.9 399.86 717.1 400.06 717.3 400.36 717.5 400.56 717.7 400.76 718 400.96 718.2 401.16 718.4 401.46 718.6 401.66 718.7 401.76 717.4 403.36 717.3 403.16 717 402.96 716.8 402.76 716.6 402.56 716.3 402.26 716.1 402.06 715.9 401.86 715.7 401.56 715.4 401.36 715.2 401.06 715 400.86 714.8 400.56 714.6 400.36 714.4 400.06 714.1 399.86 713.9 399.56 713.7 399.26 713.5 399.06 713.3 398.76 713.1 398.46 712.9 398.16 712.7 397.96 712.5 397.66 712.3 397.36 712.1 397.06 711.9 396.76 711.7 396.46 711.5 396.26 711.3 395.96 711.1 395.66 710.9 395.36 710.8 395.16 712.4 393.96"/><polygon class="cls-14" points="706.3 378.86 706.3 378.96 706.4 379.36 706.4 379.66 706.5 379.96 706.6 380.36 706.7 380.66 706.8 381.06 706.9 381.36 707 381.76 707.1 382.06 707.1 382.16 707.1 382.16 707.4 382.06 707.7 382.06 707.9 381.96 708.2 381.86 708.5 381.86 708.7 381.76 709 381.76 709.3 381.66 709.6 381.56 709.8 381.56 710.1 381.46 710.4 381.46 710.6 381.36 710.9 381.36 711.2 381.26 711.5 381.26 711.8 381.26 712 381.16 712.3 381.16 712.6 381.06 712.9 381.06 713 381.06 713.2 383.16 713.1 383.16 712.9 383.16 712.6 383.26 712.3 383.26 712.1 383.26 711.8 383.36 711.5 383.36 711.3 383.46 711 383.46 710.7 383.56 710.5 383.56 710.2 383.66 709.9 383.66 709.7 383.76 709.4 383.76 709.1 383.86 708.9 383.86 708.6 383.96 708.4 384.06 708.1 384.06 707.9 384.16 707.7 384.16 707.8 384.46 708 384.76 708.1 385.16 708.2 385.46 708.3 385.76 708.4 386.06 708.6 386.46 708.7 386.76 708.8 387.06 709 387.46 709.1 387.76 709.3 388.06 709.4 388.36 709.5 388.56 707.7 389.56 707.6 389.26 707.5 388.96 707.3 388.66 707.2 388.26 707 387.96 706.9 387.56 706.7 387.26 706.6 386.96 706.5 386.56 706.3 386.26 706.2 385.86 706.1 385.56 706 385.16 705.8 384.86 705.8 384.66 705.6 384.76 705.3 384.86 705.1 384.96 704.9 384.96 704.6 385.06 704.4 385.16 704.1 385.26 703.9 385.36 703.7 385.36 703 383.36 703.3 383.26 703.5 383.26 703.8 383.16 704 383.06 704.3 382.96 704.5 382.86 704.8 382.76 705 382.76 705.2 382.66 705.1 382.36 705 381.96 704.9 381.66 704.8 381.26 704.7 380.86 704.6 380.56 704.5 380.16 704.4 379.76 704.3 379.46 704.3 379.36 706.3 378.86"/><polygon class="cls-14" points="706.5 362.66 706.4 362.76 706.4 363.06 706.3 363.46 706.2 363.76 706.1 364.16 706 364.46 706 364.86 705.9 365.16 705.9 365.56 705.8 365.86 705.8 366.26 705.7 366.56 705.7 366.96 705.6 367.26 705.6 367.66 705.6 367.96 705.5 368.36 705.5 368.66 705.5 369.06 705.5 369.46 705.4 369.76 705.4 370.16 705.4 370.46 705.4 370.86 705.4 371.16 705.4 371.56 705.4 371.86 705.5 372.26 705.5 372.66 705.5 372.76 703.5 372.86 703.5 372.76 703.5 372.36 703.4 371.96 703.4 371.56 703.4 371.16 703.4 370.86 703.4 370.46 703.4 370.06 703.4 369.66 703.5 369.36 703.5 368.96 703.5 368.56 703.5 368.16 703.6 367.76 703.6 367.46 703.6 367.06 703.7 366.66 703.7 366.26 703.8 365.96 703.8 365.56 703.9 365.16 704 364.76 704 364.46 704.1 364.06 704.2 363.66 704.2 363.26 704.3 362.96 704.4 362.56 704.5 362.16 704.6 362.06 706.5 362.66"/><polygon class="cls-14" points="710.1 354.36 709.9 354.76 709.7 355.06 709.5 355.36 709.3 355.66 709.1 356.06 708.9 356.36 708.8 356.66 708.6 356.96 706.9 355.96 707 355.66 707.2 355.26 707.4 354.96 707.6 354.56 707.8 354.26 708 353.86 708.2 353.56 708.4 353.26 710.1 354.36"/><path class="cls-14" d="M715.9,352.86a6.11,6.11,0,0,0-7.3-4.7,6.4,6.4,0,0,0-4.4,7.7,6.11,6.11,0,0,0,7.3,4.7A6.31,6.31,0,0,0,715.9,352.86Z"/><path class="cls-14" d="M475.4,668c1.4,1.1,3.3-1.3,2.1-2.9-.1-.1-.1-.2-.2-.2l-.4-.3-.6-.5-.6-.5-.6-.5-.6-.5-.6-.5-.6-.5-.6-.5-.6-.5-.6-.5-.6-.5-.6-.5-.6-.5-.6-.5-.6-.5-.6-.5-.6-.5-.6-.5-.6-.5-.6-.5-.4-.3c-1.2-1.2-3.3.8-2.4,2.6a1.38,1.38,0,0,0,.3.4l.4.3.6.5.6.5.6.5.6.5.6.5.6.5.6.5.6.5.6.5.6.5.6.5.6.5.6.5.6.5.6.5.6.5.6.5.6.5.6.5Z"/><path class="cls-14" d="M496.5,681.76c1.6.9,3.2-1.9,1.8-3.2-.1-.1-.2-.1-.2-.2l-.2-.1-.7-.4-.7-.4-.7-.4-.7-.4-.6-.4-.6-.4-.6-.4-.6-.4-.6-.4-.6-.4-.6-.4-.6-.4-.6-.4-.6-.4-.6-.4-.6-.4-.6-.4-.6-.4-.6-.4-.6-.4-.1-.1c-1.4-1-3.2,1.3-2.1,2.9l.3.3.1.1.6.4.6.4.6.4.6.4.6.4.6.4.6.4.7.4.7.4.7.4.7.4.7.4.7.4.7.4.7.4.7.4.7.4.7.4.7.4.7.4Z"/><path class="cls-14" d="M519.1,692.06c1.9.6,3-2.8,1.2-3.6l-.4-.1-.7-.3-.7-.2-.7-.3-.7-.3-.7-.3-.7-.3-.7-.3-.7-.3-.7-.3-.7-.3-.7-.3-.7-.3-.7-.3-.7-.3-.7-.3-.7-.3-.7-.3-.7-.3-.7-.3-.7-.3-.2-.1a1.4,1.4,0,0,0-1.5.3c-1,.9-.9,2.7.2,3.2l.2.1.7.3.7.3.7.3.7.3.7.3.7.3.7.3.7.3.7.3.7.3.7.3.7.3.7.3.7.3.7.3.7.3.7.3.7.3.7.3.7.2Z"/><path class="cls-14" d="M543.1,698.06c1.8.3,2.7-2.8,1-3.6a.37.37,0,0,0-.3-.1l-.6-.1-.7-.1-.7-.1-.7-.1-.7-.1-.7-.1-.7-.1-.7-.1-.7-.1-.7-.1-.7-.2-.7-.2-.7-.2-.7-.2-.7-.2-.7-.2-.7-.2-.7-.2-.7-.2-.7-.2-.7-.2-.5-.1c-1.8-.5-2.9,2.6-1.2,3.5.1,0,.1.1.2.1l.5.1.7.2.7.2.7.2.7.2.7.2.7.2.7.2.7.2.7.2.7.2.7.2.7.1.7.1.7.1.7.1.7.1.7.1.7.1.7.1.7.1Z"/><path class="cls-14" d="M568.1,699.16c1.9-.2,2.3-3.5.3-3.7H552.8a1.28,1.28,0,0,0-1,.4c-1.2,1-.9,3.2.6,3.3H567l.7-.1Z"/><path class="cls-14" d="M593.2,694a1.89,1.89,0,0,0,1.2-1.6c.2-1.3-.7-2.4-1.8-2l-.3.1-.6.2-.6.2-.6.2-.7.2-.7.2-.7.2-.7.2-.7.2-.7.2-.7.2-.7.2-.7.2-.7.2-.7.2-.7.1-.7.2-.7.1-.7.1-.7.1-.7.1-.7.1-.7.1-.5.1a2,2,0,0,0-1.4,1.5c-.3,1.3.5,2.4,1.6,2.2l.5-.1.7-.1.7-.1.7-.1.7-.1.7-.1.7-.1.7-.2.7-.2.7-.2.7-.2.7-.2.7-.2.7-.2.7-.2.7-.2.7-.2.7-.2.7-.2.7-.2.7-.2.7-.2.7-.2Z"/><path class="cls-14" d="M613,684.46c1.6-1,1-3.9-.9-3.4-.1,0-.2.1-.4.2l-.6.4-.6.4-.6.4-.6.4-.6.3-.6.4-.6.3-.6.3-.6.3-.6.3-.6.3-.6.3-.6.3-.6.3-.6.3-.6.3-.4.2a2,2,0,0,0-.9.9c-.7,1.6.4,3.2,1.8,2.6l.4-.2.7-.3.6-.3.6-.3.6-.3.6-.3.6-.3.6-.3.6-.3.6-.4.6-.4.6-.4.6-.4.6-.4.6-.4.6-.4Z"/><path class="cls-14" d="M447.6,636.26c-1.3-1.5-3.4.6-2.5,2.4.1.1.1.2.2.3l.5.6.5.6.5.6.5.6.5.6.5.6.5.6.5.6.5.6.5.6.5.6.5.6.5.6.5.6.6.6.6.6.6.6.6.6.6.6.6.6.1.1a1.39,1.39,0,0,0,1.9,0,2.19,2.19,0,0,0,.3-3l-.1-.1-.6-.6-.6-.6-.5-.6-.5-.6-.5-.6-.5-.6-.5-.6-.5-.6-.5-.6-.5-.6-.5-.6-.5-.6-.5-.6-.5-.6-.5-.6-.5-.6-.5-.6-.5-.6-.5-.6Z"/><path class="cls-14" d="M442.1,629.46a7.09,7.09,0,0,0-3.9,9.1,6.6,6.6,0,0,0,8.8,3.9,7.17,7.17,0,0,0,3.9-9.2A6.63,6.63,0,0,0,442.1,629.46Z"/><path class="cls-9" d="M568.8,218.06h58.3a3.69,3.69,0,0,1,3.7,3.7h0a3.76,3.76,0,0,1-3.7,3.7H568.8a3.69,3.69,0,0,1-3.7-3.7h0A3.69,3.69,0,0,1,568.8,218.06Z"/><path class="cls-11" d="M627.1,215.46a6.2,6.2,0,1,1-6.2,6.2A6.23,6.23,0,0,1,627.1,215.46Z"/><path class="cls-4" d="M627.1,219.06a2.6,2.6,0,1,1-2.6,2.6A2.65,2.65,0,0,1,627.1,219.06Z"/><path class="cls-8" d="M568.8,234.06h76.4a3.69,3.69,0,0,1,3.7,3.7h0a3.69,3.69,0,0,1-3.7,3.7H568.8a3.69,3.69,0,0,1-3.7-3.7h0A3.69,3.69,0,0,1,568.8,234.06Z"/><path class="cls-11" d="M645.2,231.46a6.2,6.2,0,1,1-6.2,6.2A6.17,6.17,0,0,1,645.2,231.46Z"/><path class="cls-4" d="M645.2,235.06a2.6,2.6,0,1,1-2.6,2.6A2.58,2.58,0,0,1,645.2,235.06Z"/><path class="cls-13" d="M568.8,250.06H676.1a3.69,3.69,0,0,1,3.7,3.7h0a3.69,3.69,0,0,1-3.7,3.7H568.8a3.69,3.69,0,0,1-3.7-3.7h0A3.69,3.69,0,0,1,568.8,250.06Z"/><path class="cls-11" d="M676.1,247.46a6.2,6.2,0,1,1-6.2,6.2A6.23,6.23,0,0,1,676.1,247.46Z"/><path class="cls-4" d="M676.1,251.06a2.6,2.6,0,1,1-2.6,2.6A2.65,2.65,0,0,1,676.1,251.06Z"/><path class="cls-10" d="M568.8,266.06h94.4a3.69,3.69,0,0,1,3.7,3.7h0a3.76,3.76,0,0,1-3.7,3.7H568.8a3.69,3.69,0,0,1-3.7-3.7h0A3.69,3.69,0,0,1,568.8,266.06Z"/><path class="cls-11" d="M663.2,263.46a6.2,6.2,0,1,1-6.2,6.2A6.23,6.23,0,0,1,663.2,263.46Z"/><path class="cls-4" d="M663.2,267.06a2.6,2.6,0,1,1-2.6,2.6A2.65,2.65,0,0,1,663.2,267.06Z"/><path class="cls-8" d="M568.8,282.06h79a3.69,3.69,0,0,1,3.7,3.7h0a3.69,3.69,0,0,1-3.7,3.7h-79a3.69,3.69,0,0,1-3.7-3.7h0A3.69,3.69,0,0,1,568.8,282.06Z"/><circle class="cls-11" cx="647.7" cy="285.66" r="6.2"/><path class="cls-4" d="M647.7,283.06a2.6,2.6,0,1,1-2.6,2.6A2.65,2.65,0,0,1,647.7,283.06Z"/><path class="cls-13" d="M568.8,298.06h99.6a3.69,3.69,0,0,1,3.7,3.7h0a3.69,3.69,0,0,1-3.7,3.7H568.8a3.69,3.69,0,0,1-3.7-3.7h0A3.69,3.69,0,0,1,568.8,298.06Z"/><circle class="cls-11" cx="668.4" cy="301.66" r="6.2"/><path class="cls-4" d="M668.4,299.06a2.6,2.6,0,1,1-2.6,2.6A2.58,2.58,0,0,1,668.4,299.06Z"/><rect class="cls-5" x="555.1" y="315.46" width="141.4" height="3.5"/><rect class="cls-5" x="554" y="208.56" width="3.5" height="110.4"/><polygon class="cls-5" points="706.3 317.46 699.8 314.16 693.4 310.96 693.4 317.46 693.4 323.86 699.8 320.66 706.3 317.46"/><polygon class="cls-5" points="555.6 197.46 558.9 203.86 562.1 210.36 555.6 210.36 549.2 210.36 552.4 203.86 555.6 197.46"/></g><g class="cls-2"><g class="cls-15"><path class="cls-11" d="M861,388.16H764.1a12.08,12.08,0,0,0-12.1,12.1V519a12.08,12.08,0,0,0,12.1,12.1H861A12.08,12.08,0,0,0,873.1,519V400.26a12.08,12.08,0,0,0-12.1-12.1Z"/></g><path class="cls-4" d="M860.9,397.86a2.48,2.48,0,0,1,2.5,2.5v118.5a2.48,2.48,0,0,1-2.5,2.5H764.2a2.48,2.48,0,0,1-2.5-2.5V400.36a2.48,2.48,0,0,1,2.5-2.5Z"/><path class="cls-16" d="M795.6,441.46H781a4.8,4.8,0,0,1-4.8-4.8v-14.5a4.8,4.8,0,0,1,4.8-4.8h14.5a4.8,4.8,0,0,1,4.8,4.8v14.5a4.65,4.65,0,0,1-4.7,4.8ZM781,422.06v14.5h14.5v-14.5Z"/><path class="cls-17" d="M815,424.46h-7.3a2.4,2.4,0,1,1,0-4.8H815a2.43,2.43,0,0,1,2.4,2.4,2.37,2.37,0,0,1-2.4,2.4Z"/><path class="cls-18" d="M844,434.16H807.7a2.4,2.4,0,1,1,0-4.8H844a2.43,2.43,0,0,1,2.4,2.4,2.31,2.31,0,0,1-2.4,2.4Z"/><path class="cls-17" d="M831.9,458.46H807.7a2.4,2.4,0,1,1,0-4.8h24.2a2.43,2.43,0,0,1,2.4,2.4,2.31,2.31,0,0,1-2.4,2.4Z"/><path class="cls-18" d="M844,468.06H807.7a2.4,2.4,0,1,1,0-4.8H844a2.43,2.43,0,0,1,2.4,2.4,2.26,2.26,0,0,1-2.4,2.4Z"/><path class="cls-17" d="M817.4,490h-9.7a2.4,2.4,0,1,1,0-4.8h9.7a2.4,2.4,0,1,1,0,4.8Z"/><path class="cls-18" d="M844,499.56H807.7a2.4,2.4,0,1,1,0-4.8H844a2.43,2.43,0,0,1,2.4,2.4,2.26,2.26,0,0,1-2.4,2.4Z"/><path class="cls-18" d="M822.2,388.16a2.43,2.43,0,0,1-2.4-2.4v-2.4a2.43,2.43,0,0,0-2.4-2.4h-9.7a2.43,2.43,0,0,0-2.4,2.4v2.4a2.4,2.4,0,0,1-4.8,0v-2.4a7.34,7.34,0,0,1,7.3-7.3h9.7a7.34,7.34,0,0,1,7.3,7.3v2.4a2.62,2.62,0,0,1-2.6,2.4Z"/><path class="cls-16" d="M839.2,383.26H785.9a2.43,2.43,0,0,0-2.4,2.4V393a12.08,12.08,0,0,0,12.1,12.1h33.9A12.08,12.08,0,0,0,841.6,393v-7.3a2.43,2.43,0,0,0-2.4-2.4Z"/><path class="cls-16" d="M795.6,473H781a4.8,4.8,0,0,1-4.8-4.8v-14.5a4.8,4.8,0,0,1,4.8-4.8h14.5a4.8,4.8,0,0,1,4.8,4.8v14.5a4.65,4.65,0,0,1-4.7,4.8ZM781,453.56v14.5h14.5v-14.5Z"/><path class="cls-16" d="M795.6,504.46H781a4.8,4.8,0,0,1-4.8-4.8v-14.5a4.8,4.8,0,0,1,4.8-4.8h14.5a4.8,4.8,0,0,1,4.8,4.8v14.5a4.65,4.65,0,0,1-4.7,4.8ZM781,485.06v14.5h14.5v-14.5Z"/><path class="cls-19" d="M790.7,465.66a2.34,2.34,0,0,1-1.7-.7l-4.8-4.8a2.4,2.4,0,1,1,3.4-3.4l3.1,3.1,10.4-10.4a2.4,2.4,0,1,1,3.4,3.4L792.4,465a2.06,2.06,0,0,1-1.7.7Z"/></g></svg>