<?xml version="1.0" encoding="utf-8"?>
<!-- Generator: Adobe Illustrator 21.1.0, SVG Export Plug-In . SVG Version: 6.00 Build 0)  -->
<svg version="1.1" id="Layer_1" xmlns="http://www.w3.org/2000/svg" xmlns:xlink="http://www.w3.org/1999/xlink" x="0px" y="0px"
	 viewBox="0 0 766 369" style="enable-background:new 0 0 766 369;" xml:space="preserve">
<style type="text/css">
	.st0{opacity:0.75;fill:#E4EFE5;}
</style>
<path class="st0" d="M766.4,369.3H-0.4V33c0,0,111.9,54.4,201.2,46.4c156.2-14,272-57.5,383.3-69.2c123.4-13,182.3-4.4,182.3-4.4
	V369.3z"/>
<path class="st0" d="M766.4,370H-0.4V10c0,0,82.5-4.1,149.6,19.5C327.1,92.1,383,96.6,582,43.7c119.9-31.8,184.4-31.5,184.4-31.5
	V370z"/>
<path class="st0" d="M766.4,372H-0.4V69.8c0,0,117-47.6,206.9-52.4c304-16.4,559.8,102.8,559.8,102.8V372z"/>
</svg>
